<?xml version="1.0" encoding="utf-8"?>
<!-- Generator: Adobe Illustrator 23.0.3, SVG Export Plug-In . SVG Version: 6.00 Build 0)  -->
<svg version="1.1" id="Layer_1" xmlns="http://www.w3.org/2000/svg" xmlns:xlink="http://www.w3.org/1999/xlink" x="0px" y="0px"
	 viewBox="0 0 1000 1000" style="enable-background:new 0 0 1000 1000;" xml:space="preserve">
<style type="text/css">
	.st0{fill:#FFFFFF;}
	.st1{fill:#B0CE57;}
	.st2{fill:#231F20;}
	.st3{fill:#CF85AA;}
	.st4{fill:#EAC3D2;}
	.st5{fill:#D1C6CD;}
	.st6{fill:#E0E8CA;}
	.st7{fill:#C0C4C9;}
	.st8{fill:none;}
	.st9{font-family:'MyriadPro-Regular';}
	.st10{font-size:12px;}
</style>
<g>
	<path class="st0" d="M164.7,682.4c4.9,0,9.3,1.2,13.4,3.7c4.1,2.5,7.3,5.8,9.8,10c2.4,4.2,3.6,9,3.6,14.2c0,5.2-1.2,9.9-3.6,14.2
		c-2.4,4.3-5.7,7.7-9.8,10.2c-4.1,2.5-8.5,3.8-13.4,3.8h-23v34.8h-14v-91H164.7z M164.5,725c2.3,0,4.5-0.7,6.4-2
		c1.9-1.3,3.4-3.1,4.6-5.3s1.8-4.7,1.8-7.3c0-4.1-1.3-7.5-3.8-10.3c-2.5-2.8-5.5-4.2-9-4.2h-22.8V725H164.5z"/>
	<path class="st0" d="M213,690.3c-3,0-5.3-0.8-6.8-2.3c-1.5-1.6-2.2-3.6-2.2-6.1c0-2.2,0.7-4.1,2.2-5.9c1.5-1.7,3.7-2.6,6.8-2.6
		c3,0,5.3,0.8,6.8,2.3c1.5,1.6,2.2,3.6,2.2,6.1c0,2.2-0.7,4.1-2.2,5.8C218.3,689.4,216,690.3,213,690.3z M219.9,773.4h-13.4v-68.3
		h13.4V773.4z"/>
	<path class="st0" d="M246,739.2c0,4.5,1,8.5,3.1,12c2,3.5,4.7,6.3,8.1,8.3c3.3,2,6.9,3.1,10.7,3.1c4.3,0,8.1-1.1,11.3-3.4
		c3.2-2.3,5.8-4.6,7.8-7l7.4,9.1c-1.6,2.3-3.9,4.5-6.8,6.6c-2.9,2-6.1,3.7-9.8,4.9s-7.5,1.9-11.4,1.9c-6.2,0-11.9-1.6-16.9-4.7
		c-5-3.1-9-7.4-11.9-12.7c-2.9-5.4-4.4-11.4-4.4-18.1c0-6.8,1.5-12.8,4.4-18.1c2.9-5.3,6.9-9.6,11.9-12.7c5-3.1,10.7-4.7,16.9-4.7
		c6.3,0,12,1.3,16.9,3.8c4.9,2.6,8.6,5.9,11,9.9l-7.4,9.1c-2-2.9-4.8-5.5-8.5-7.6c-3.7-2.1-7.3-3.2-10.7-3.2c-4.1,0-7.8,1-11,3.1
		c-3.3,2-5.9,4.8-7.8,8.3C246.9,730.7,246,734.7,246,739.2z"/>
	<path class="st0" d="M304.2,773.4v-96.2h13.4v58.5l30.8-30.5h18.1l-32,30l32.9,38.2h-17.2L325,744l-7.4,7v22.4H304.2z"/>
	<path class="st0" d="M374.7,773.4v-96.2h13.4v96.2H374.7z"/>
	<path class="st0" d="M461.8,764.4h-0.1c-2.8,2.7-6.6,5.1-11.4,7.1c-4.9,2.1-9.9,3.1-15.2,3.1c-7.1,0-13.4-1.5-18.8-4.5
		c-5.4-3-9.6-7.1-12.7-12.4c-3-5.2-4.5-11.2-4.5-17.9c0-7.6,1.6-14.1,4.8-19.6c3.2-5.4,7.5-9.6,12.7-12.5c5.3-2.9,11-4.4,17.3-4.4
		c5.7,0,10.9,1.4,15.6,4.2c4.7,2.8,8.4,6.7,11.2,11.6c2.8,4.9,4.2,10.7,4.2,17.3l-0.1,5.7h-52.3c0.8,6.2,3.3,11,7.6,14.6
		c4.3,3.6,9.7,5.4,16.3,5.4c4.8,0,8.6-0.9,11.6-2.7c2.9-1.8,5.4-3.5,7.3-5.1L461.8,764.4z M433.8,715.9c-5.1,0-9.6,1.2-13.4,3.6
		c-3.8,2.4-6.3,6.5-7.5,12.3h38.2v-0.9c-0.3-2.9-1.2-5.5-2.9-7.8c-1.7-2.3-3.8-4-6.3-5.3C439.4,716.5,436.7,715.9,433.8,715.9z"/>
	<path class="st0" d="M540.6,677.2v96.2h-13.4v-9.6c-2,2.7-4.9,5.2-8.8,7.5c-3.9,2.3-8.3,3.4-13.3,3.4c-6.2,0-11.7-1.5-16.6-4.5
		c-4.9-3-8.8-7.2-11.7-12.6c-2.9-5.4-4.3-11.5-4.3-18.3c0-6.9,1.4-13.1,4.3-18.4c2.9-5.3,6.7-9.5,11.6-12.5c4.9-3,10.3-4.5,16.4-4.5
		c4.9,0,9.3,1,13.2,3c3.9,2,7,4.3,9.3,7v-36.5H540.6z M506.9,763.1c4.2,0,7.8-1,10.9-3.1s5.5-4.9,7.3-8.6c1.7-3.6,2.6-7.7,2.6-12.2
		c0-4.6-0.9-8.7-2.6-12.3c-1.7-3.6-4.2-6.4-7.3-8.5s-6.8-3.1-10.9-3.1c-4.1,0-7.7,1-10.8,3.1c-3.1,2.1-5.6,4.9-7.3,8.5
		c-1.8,3.6-2.7,7.7-2.7,12.3c0,4.5,0.9,8.6,2.7,12.2c1.8,3.6,4.2,6.5,7.3,8.6C499.2,762.1,502.8,763.1,506.9,763.1z"/>
	<path class="st0" d="M597.6,682.4c8.8,0,15.5,2,20,5.8c4.5,3.9,6.8,9.6,6.8,17c0,4.1-1,7.7-2.9,10.9c-1.9,3.2-4.8,5.7-8.6,7.5
		c2.9,1,5.5,2.4,8,4.4c2.5,1.9,4.5,4.4,6,7.5c1.6,3,2.3,6.7,2.3,11c0,5.3-0.9,9.7-2.7,13.1c-1.8,3.5-4.2,6.2-7.1,8.2
		c-2.9,2-6.2,3.4-9.8,4.2c-3.6,0.8-7.1,1.2-10.7,1.2h-39.3v-91H597.6z M595.3,695.9h-21.6v24.2h23.1c3.6-0.1,6.7-1.2,9.4-3.3
		c2.7-2.1,4.1-5,4.1-8.8c0-4.3-1.5-7.4-4.4-9.3C603.1,696.8,599.5,695.9,595.3,695.9z M597.5,733.6h-23.8v26.3h24.4
		c4.9,0,9-1.1,12.1-3.3c3.1-2.2,4.7-5.6,4.7-10.2c0-3.3-0.9-5.8-2.7-7.7c-1.8-1.8-4.1-3.1-6.7-3.9
		C602.9,734,600.2,733.6,597.5,733.6z"/>
	<path class="st0" d="M680.3,719.6c-0.9-0.4-1.9-0.8-3.2-1.1c-1.3-0.3-2.6-0.5-4-0.5c-2.8,0-5.5,0.7-8.2,2.1
		c-2.7,1.4-4.9,3.5-6.7,6.1c-1.8,2.6-2.7,5.8-2.7,9.4v37.7h-13.5v-68.3h13.5V718c1.9-4.2,4.8-7.6,8.6-10.3c3.9-2.7,7.9-4,12.2-4
		c3.2,0,5.7,0.4,7.4,1.3L680.3,719.6z"/>
	<path class="st0" d="M752.5,705.1v68.3h-13.5v-10.5c-2.1,2.9-5.2,5.5-9.2,8.1c-4.1,2.5-8.8,3.8-14.2,3.8c-5.7,0-10.9-1.5-15.7-4.5
		c-4.7-3-8.5-7.2-11.2-12.6c-2.8-5.4-4.2-11.5-4.2-18.5c0-6.9,1.4-13.1,4.3-18.4c2.9-5.3,6.8-9.5,11.8-12.5c5-3,10.7-4.5,17.2-4.5
		c4.8,0,8.9,1,12.5,3.1c3.6,2.1,6.5,4.5,8.6,7.3v-9H752.5z M718.7,762.3c4.2,0,7.8-1,10.9-3.1c3.1-2,5.5-4.8,7.3-8.3
		c1.7-3.5,2.6-7.5,2.6-11.9c0-4.3-0.9-8.2-2.6-11.7c-1.7-3.5-4.2-6.2-7.3-8.3c-3.1-2-6.8-3.1-10.9-3.1c-4,0-7.5,1-10.7,3
		c-3.1,2-5.5,4.7-7.3,8.2c-1.7,3.5-2.6,7.4-2.6,11.8s0.9,8.4,2.6,11.9c1.7,3.5,4.2,6.3,7.3,8.3C711.1,761.3,714.7,762.3,718.7,762.3
		z"/>
	<path class="st0" d="M777.4,690.3c-3,0-5.3-0.8-6.8-2.3c-1.5-1.6-2.2-3.6-2.2-6.1c0-2.2,0.7-4.1,2.2-5.9c1.5-1.7,3.7-2.6,6.8-2.6
		c3,0,5.3,0.8,6.8,2.3c1.5,1.6,2.2,3.6,2.2,6.1c0,2.2-0.7,4.1-2.2,5.8C782.7,689.4,780.5,690.3,777.4,690.3z M784.3,773.4h-13.4
		v-68.3h13.4V773.4z"/>
	<path class="st0" d="M837.6,703.7c6.2,0,10.9,1.3,14.3,3.8c3.4,2.5,5.7,5.9,7.1,10.1c1.3,4.2,2,9,2,14.2v41.6h-13.4v-40.7
		c0-3.3-0.4-6.2-1.3-8.8c-0.9-2.6-2.3-4.6-4.4-6.1c-2.1-1.5-5-2.1-8.7-1.8c-3.5,0-6.5,0.7-9.2,2.2c-2.7,1.5-4.8,3.4-6.4,5.8
		c-1.6,2.4-2.3,5.1-2.3,8.1v41.3h-13.4v-68.3h13.4v10.8c2.1-3.2,5.1-6,9.1-8.5C828.3,704.9,832.8,703.7,837.6,703.7z"/>
	<path class="st0" d="M145,871.4v-77.5h-25.5v-13.5h65.8v13.5H159v77.5H145z"/>
	<path class="st0" d="M247,803.1v68.3h-13.5v-10.5c-2.1,2.9-5.2,5.5-9.2,8.1c-4.1,2.5-8.8,3.8-14.2,3.8c-5.7,0-10.9-1.5-15.7-4.5
		c-4.7-3-8.5-7.2-11.2-12.6c-2.8-5.4-4.2-11.5-4.2-18.5c0-6.9,1.4-13.1,4.3-18.4s6.8-9.5,11.8-12.5c5-3,10.7-4.5,17.2-4.5
		c4.8,0,8.9,1,12.5,3.1c3.6,2.1,6.5,4.5,8.6,7.3v-9H247z M213.2,860.3c4.2,0,7.8-1,10.9-3.1c3.1-2,5.5-4.8,7.3-8.3
		c1.7-3.5,2.6-7.5,2.6-11.9c0-4.3-0.9-8.2-2.6-11.7c-1.7-3.5-4.2-6.2-7.3-8.3c-3.1-2-6.8-3.1-10.9-3.1c-4,0-7.5,1-10.7,3
		c-3.1,2-5.5,4.7-7.3,8.2c-1.7,3.5-2.6,7.4-2.6,11.8s0.9,8.4,2.6,11.9c1.7,3.5,4.2,6.3,7.3,8.3C205.7,859.3,209.2,860.3,213.2,860.3
		z"/>
	<path class="st0" d="M284.9,871.4h-13.4v-55.3h-14.2v-13h14.2v-17.4h13.4v17.4h15.9v13h-15.9V871.4z"/>
	<path class="st0" d="M332,871.4h-13.4v-55.3h-14.2v-13h14.2v-17.4H332v17.4h15.9v13H332V871.4z"/>
	<path class="st0" d="M422.1,837.2c0,6.9-1.5,13.1-4.6,18.4c-3.1,5.3-7.2,9.5-12.5,12.5c-5.2,3-11.1,4.5-17.6,4.5
		s-12.4-1.5-17.7-4.5c-5.3-3-9.5-7.2-12.5-12.5c-3.1-5.3-4.6-11.5-4.6-18.4c0-6.9,1.5-13.1,4.6-18.4c3.1-5.3,7.3-9.5,12.5-12.5
		c5.3-3,11.2-4.5,17.7-4.5s12.4,1.5,17.6,4.5c5.2,3,9.4,7.2,12.5,12.5C420.6,824.1,422.1,830.3,422.1,837.2z M408.5,837.2
		c0.1-4.6-0.8-8.6-2.7-12.2c-1.9-3.5-4.4-6.2-7.6-8.2c-3.2-2-6.8-2.9-10.8-2.9c-4,0-7.6,1-10.9,2.9s-5.8,4.7-7.7,8.2
		c-1.9,3.5-2.8,7.6-2.7,12.2c-0.1,4.5,0.8,8.5,2.7,12c1.9,3.5,4.4,6.3,7.7,8.3c3.3,2,6.9,3,10.9,3c4,0,7.6-1,10.8-3
		c3.2-2,5.7-4.7,7.6-8.3C407.7,845.7,408.6,841.7,408.5,837.2z"/>
	<path class="st0" d="M499.4,837.2c0,6.9-1.5,13.1-4.6,18.4c-3.1,5.3-7.2,9.5-12.5,12.5c-5.2,3-11.1,4.5-17.6,4.5
		s-12.4-1.5-17.7-4.5c-5.3-3-9.5-7.2-12.5-12.5c-3.1-5.3-4.6-11.5-4.6-18.4c0-6.9,1.5-13.1,4.6-18.4c3.1-5.3,7.3-9.5,12.5-12.5
		c5.3-3,11.2-4.5,17.7-4.5s12.4,1.5,17.6,4.5c5.2,3,9.4,7.2,12.5,12.5C497.8,824.1,499.4,830.3,499.4,837.2z M485.7,837.2
		c0.1-4.6-0.8-8.6-2.7-12.2c-1.9-3.5-4.4-6.2-7.6-8.2c-3.2-2-6.8-2.9-10.8-2.9c-4,0-7.6,1-10.9,2.9s-5.8,4.7-7.7,8.2
		c-1.9,3.5-2.8,7.6-2.7,12.2c-0.1,4.5,0.8,8.5,2.7,12c1.9,3.5,4.4,6.3,7.7,8.3c3.3,2,6.9,3,10.9,3c4,0,7.6-1,10.8-3
		c3.2-2,5.7-4.7,7.6-8.3C484.9,845.7,485.8,841.7,485.7,837.2z"/>
	<path class="st0" d="M551.6,843.9c3.6,5.1,7.3,9.1,11.1,11.9c3.9,2.8,8.9,4.2,15,4.2c2.9,0,5.8-0.5,8.5-1.4c2.7-1,4.9-2.3,6.6-4.2
		c1.7-1.8,2.6-4,2.6-6.5c0-4.3-1.8-7.7-5.5-10.1c-3.7-2.4-8.9-4.3-15.5-5.6c-8.5-1.7-15.3-4.7-20.3-9c-5-4.3-7.5-10.5-7.5-18.7
		c0-5.2,1.5-9.7,4.4-13.5c2.9-3.8,6.7-6.8,11.5-8.8c4.8-2.1,9.9-3.1,15.5-3.1c7.2,0,13.4,1.4,18.6,4.2c5.2,2.8,9.3,6.7,12.2,11.8
		l-9.9,9.8c-2.3-3.9-5.3-7.1-8.8-9.5c-3.6-2.4-7.7-3.6-12.5-3.6c-4.8,0-8.8,1.1-12,3.3s-4.9,5.3-4.9,9.2c0,4.4,1.7,7.6,5.1,9.7
		c3.4,2,8,3.7,13.6,4.9c5.1,1,10,2.6,14.6,4.8c4.6,2.2,8.3,5,11.2,8.4c2.9,3.4,4.4,7.6,4.4,12.4c0,8.7-2.9,15.6-8.8,20.7
		c-5.9,5.1-14,7.7-24.3,7.7c-7,0-13.4-1.4-19.2-4.2c-5.8-2.8-10.8-7.3-15.1-13.5L551.6,843.9z"/>
	<path class="st0" d="M645.1,871.4h-13.4v-55.3h-14.2v-13h14.2v-17.4h13.4v17.4h15.9v13h-15.9V871.4z"/>
	<path class="st0" d="M717,844.2v-41.1h13.4v68.3H717v-10.9c-2,3.2-4.9,6-8.8,8.5c-3.9,2.5-8.5,3.7-13.8,3.7
		c-7.1,0-12.9-2.4-17.3-7.3c-4.4-4.9-6.6-11.6-6.6-20.1v-42.1h13.4v38.5c0,3.5,0.5,6.7,1.6,9.6c1.1,2.9,2.8,5.3,5.2,7.1
		c2.4,1.8,5.4,2.7,9.2,2.7c4.7,0,8.7-1.5,12.1-4.4C715.3,853.6,717,849.5,717,844.2z"/>
	<path class="st0" d="M810.3,775.2v96.2h-13.4v-9.6c-2,2.7-4.9,5.2-8.8,7.5c-3.9,2.3-8.3,3.4-13.3,3.4c-6.2,0-11.7-1.5-16.6-4.5
		c-4.9-3-8.8-7.2-11.7-12.6c-2.9-5.4-4.3-11.5-4.3-18.3c0-6.9,1.4-13.1,4.3-18.4c2.9-5.3,6.7-9.5,11.6-12.5c4.9-3,10.3-4.5,16.4-4.5
		c4.9,0,9.3,1,13.2,3c3.9,2,7,4.3,9.3,7v-36.5H810.3z M776.6,861.1c4.2,0,7.8-1,10.9-3.1s5.5-4.9,7.3-8.6c1.7-3.6,2.6-7.7,2.6-12.2
		c0-4.6-0.9-8.7-2.6-12.3c-1.7-3.6-4.2-6.4-7.3-8.5s-6.8-3.1-10.9-3.1c-4.1,0-7.7,1-10.8,3.1s-5.6,4.9-7.3,8.5
		c-1.8,3.6-2.7,7.7-2.7,12.3c0,4.5,0.9,8.6,2.7,12.2c1.8,3.6,4.2,6.5,7.3,8.6S772.6,861.1,776.6,861.1z"/>
	<path class="st0" d="M835,788.3c-3,0-5.3-0.8-6.8-2.3c-1.5-1.6-2.2-3.6-2.2-6.1c0-2.2,0.7-4.1,2.2-5.9c1.5-1.7,3.7-2.6,6.8-2.6
		c3,0,5.3,0.8,6.8,2.3c1.5,1.6,2.2,3.6,2.2,6.1c0,2.2-0.7,4.1-2.2,5.8C840.3,787.4,838,788.3,835,788.3z M841.9,871.4h-13.4v-68.3
		h13.4V871.4z"/>
	<path class="st0" d="M924.8,837.2c0,6.9-1.5,13.1-4.6,18.4c-3.1,5.3-7.2,9.5-12.5,12.5c-5.2,3-11.1,4.5-17.6,4.5
		s-12.4-1.5-17.7-4.5c-5.3-3-9.5-7.2-12.5-12.5c-3.1-5.3-4.6-11.5-4.6-18.4c0-6.9,1.5-13.1,4.6-18.4c3.1-5.3,7.3-9.5,12.5-12.5
		c5.3-3,11.2-4.5,17.7-4.5s12.4,1.5,17.6,4.5c5.2,3,9.4,7.2,12.5,12.5C923.3,824.1,924.8,830.3,924.8,837.2z M911.2,837.2
		c0.1-4.6-0.8-8.6-2.7-12.2c-1.9-3.5-4.4-6.2-7.6-8.2c-3.2-2-6.8-2.9-10.8-2.9c-4,0-7.6,1-10.9,2.9s-5.8,4.7-7.7,8.2
		c-1.9,3.5-2.8,7.6-2.7,12.2c-0.1,4.5,0.8,8.5,2.7,12c1.9,3.5,4.4,6.3,7.7,8.3c3.3,2,6.9,3,10.9,3c4,0,7.6-1,10.8-3
		c3.2-2,5.7-4.7,7.6-8.3C910.4,845.7,911.3,841.7,911.2,837.2z"/>
</g>
<title>Artboard 1</title>
<path class="st1" d="M801.1,286.1c12.9,32.9,5.5,76.5-9,103.2c-8.4,15.3-17.7,30.1-27.9,44.4c-3.2,4.6-6.5,8.7-9.7,13l-11.6-4.5
	c8.2-9.5,12.8-22.4,13.5-39.5l-0.4-3.9c-0.1-3.5-0.6-6.9-1.6-10.2c4.8-6.4,9.3-13.1,13.4-20c4.8-8.3,11-17.6,11.4-29.8
	c0.5-14.1-4.8-25.3-6-39.3c-0.5-5.2-0.3-10.5,0.5-15.7c0.4-2.9,0.5-5.7,0.4-8.6c-0.5-7.9,0.6-15.6,0.4-22.8
	c-0.1-2.4-1.2-4.9-1.2-7.1c0.1-5.8,1.9-11.2,2-16.9c0.1-18.6-4.1-32-11.8-44c-9.5-14.9-20.1-28.5-35-39.3
	c-2.6-10.2-9.9-17.2-16.5-24.3c-15.2-16.3-35-29.5-65.2-31c-3.5-0.2-3.7-1.2-7.3-1.9c-3.9-0.6-7.9-0.9-11.9-0.9h-7.8
	c-9.4,1-18.3,2.7-25.5,5.9c-16.4-17.2-45.3-29.7-76.9-34.9c-27.7-4.6-61.6-0.7-80.9,9.4c22.3-26.7,52.4-45.8,101.3-45.9
	c18.5,5.2,30.7,11.4,44,21.2c3.6,2.7,8.5,8.1,12.2,9c3.5,0.8,7.6,0.1,10.6,0.4c15.6,1.7,30.9,5.8,42.8,12.2c4.3,2.3,7.6,6.2,12.6,9
	c4.4,2.5,12.7,3.4,17.7,5.1c37.2,12.5,64.8,34.6,88.3,62c13,15.1,25.7,31.7,31.4,54.6c5.7,22.6,0.8,45.1-1.2,68.7
	c-0.3,3.2-1.2,6.9-0.8,9.8C795.8,277.8,799.6,282.4,801.1,286.1z"/>
<path class="st2" d="M773.1,299.5c1.3,13.9,6.5,25.2,6,39.3c-0.4,12.2-6.6,21.5-11.4,29.8c-4.1,6.9-8.5,13.6-13.4,20
	c1,3.3,1.5,6.8,1.6,10.2l0.4,3.9c-0.6,17.1-5.3,30-13.5,39.5c-7.2,8.4-17.1,14-29.3,17.4c-7,29.5-23.6,55.5-51.4,69.1
	c-30.8,15.1-89.4,22.6-100.5-14.9c-2,0.6-4.2,0.9-6.3,0.8L556,502c2,0.7,4,1.4,6.1,2c3.3-12.8,5.7-24.2,16.1-28.6
	c8.5-3.6,20.8-2.1,32.2-1.2c7.1,0.6,17,2.8,22.8,1.2c3.5-1,4.7-6,7.1-7.5c0.3,5.8,1,10.2-1.2,13.8c-3.4,5.5-19.1,3.9-30.2,3.9
	c-9.8,0-20.6-0.4-25.1,2.8c-3.9,2.7-9.7,15.3-8.2,22.8c1,5.2,9.2,10.6,14.1,12.6c17.9,7.2,40.3,0.7,54.5-5.5
	c22.8-10,38.3-27.1,46.3-50.6c1.5-4.4,2.2-10.7,4.7-14.9c1.7-2.6,4-4.7,6.8-6.1c4.6-2.4,10.3-3.6,15.1-6.1
	c13.2-6.9,23.2-19.9,21.6-41.2c-0.9-12.5-8.8-23.4-20.4-28.3c-17.3-7.1-39,0.6-46.7,11.4c-5.7,7.8-11.1,26.1-10.6,37.7
	c0.5,13.7,21,22.4,32.2,14.1c4-3,5.4-9.1,5.9-15.7c-4.1-5.5-13.5-1-19.2,0c0-0.8,0-1.6,0-2.4v0c0.1-1,0.2-2,0.4-3.1
	c3.6-15.7,29.3-9.9,31.4,3.6c1.3,8.4-3.5,19.7-7.5,24.4c-1.9,2.2-4.2,4-6.8,5.3c-5.5,2.9-12.8,4.1-20.7,3.4
	c-12.7-1.4-22.5-10.1-26.7-19.7c-7.6-17.2,2.9-48,10.6-58.1c16.7-22,56.7-26.4,77.7-8.6c3.5,3,5.8,7.2,9.8,9.8
	c5.3-11.9,12.8-24.1,15.3-40c1.7-10.6,1.3-21.7,0.4-32.6L773.1,299.5z"/>
<path class="st2" d="M763.4,184.5c7.6,12,11.9,25.4,11.8,44c0,5.7-1.8,11.1-2,16.9c0,2.2,1.1,4.6,1.2,7.1c0.2,7.1-0.9,14.9-0.4,22.8
	c0.1,2.9,0,5.8-0.4,8.6c-0.8,5.2-1,10.5-0.5,15.7l-9.3,0.8c-0.9-10.8-2.2-21.5-2.4-31.4c-13.7,9.5-1.8,37.5-9.8,53.8
	c-3.7,7.4-14.8,14.5-25.1,13.8c-6.1-0.4-13.8-8.1-13-14.9c0.3-2.4,3.2-6.3,7.1-4.7c3.5,1.4,1.3,7.8,5.9,9.8
	c13.9-0.6,17.7-8.5,17.3-22.8c-0.3-8.7-4.1-17.9-3.1-27.5c1.3-12.8,9.5-15.5,14.5-24.7c3.8-7.1,5.2-18.5,5.1-26.7
	c-0.1-22.5-13.2-39.9-23.9-52.6c-1.6-1.9-3.7-4.6-5.1-4.3c7,19.7,2.1,44-4.3,59.7c-3.2,7.7-9.6,17-17.3,21.2
	c-17.1,9.4-40.9-1.6-60.1-1.6c-9.1,0-19.1,1.9-26.7,5.5c-12.4,5.9-25.1,20.4-24,39.2c0.2,3.5,2.3,7.3,0,9.8
	c-3.7-1.2-4.3-4.8-5.5-7.5c-1.6-3.1-2.8-6.4-3.5-9.8c-2.5-14.2,7.7-26.1,14.1-33c12.8-13.7,35.2-20.8,60.8-16.9
	c10.6,1.6,25.6,6,35.7,2.4c8.7-3.2,12.9-15.1,15.3-24.7c3.5-13.8,3.9-25.8,0.8-39.3c-1.5-6.3-1.9-12.7-3.2-18.4
	c-2.3-10.4-8.3-15.9-15.3-23.6c-4.4-5-9.4-9.5-14.9-13.3c-13-8.7-45.3-18-58.5-6.7c-10.5,9-21.5,36.6-18.8,55
	c0.9,6.3,6.4,13.4,10.6,17.7c3.5,3.6,9.2,8.9,14.5,9.8c5.8,1.1,15.6-0.9,19.2-2.4c5.3-2.1,14.3-9,15.3-14.9
	c1.5-8.6-4.7-17.8-9.8-19.6c-9.8-3.5-14.3,5.9-19.2,10.6c1.8-12.6,10.5-26,25.9-20c12.2,4.7,21.1,25.8,13.3,39.7
	c-7.7,13.7-33.8,30.6-55.3,20c-13.6-6.6-29.7-23.4-31-41.6c-1.6-21.9,7.6-41.5,17.3-58.1c-22,6.4-32,29.4-52,38.7
	c-3.2,1.2-6.4,2.1-9.8,2.7c-6.5,0.9-13.6,0.7-20.3,1.8c-7.7,1.1-15.1,4-21.4,8.6l-7.1-6.7c0.5-1.7,1.2-3.3,2-4.9l0,0
	c0.7-1,1.3-2,1.9-3.1c0,0,0,0,0-0.1c5.2-7,13.6-9.9,24.3-11.6c6.5-1,14.3-0.6,20.8-2.8s12.9-9.2,18.1-13.7
	c6-5.4,11.2-10.1,16.9-15.3C556.3,84.7,521,69.4,479.2,73.4c-14.1,1.3-26,4.5-35.6,9.9c-7.2,4-13.4,9.6-18.1,16.4
	c8.8,4.6,15.2,12.8,17.7,22.4c2,7,3.5,16.4,1.2,23.2c-1.6,4.8-7,7.1-11.4,9.8c7.5-26.7-3.6-47.9-31-44.7
	c-16.1,1.9-21.8,16.2-27.1,29.8c19.6,9,35.8,24,36.9,49.4c0.7,15-6.6,31.6-13.3,42.8c-7.8,12.9-19.2,20.1-35.3,21.2
	c-3.7,0.3-7.5,0.3-11.2-0.1c-1.7-0.2-3.3-0.6-4.9-1.1c-15.6-5.3-22.4-29.7-13-47.1c3-5.4,10.2-13.3,18.9-12.2
	c6.2,0.8,10.5,7.2,13.7,10.6c-4.2-2.4-9.1-6.6-14.5-5.5c-8.2,1.6-12.3,14.3-10.9,24.6c0,0.1,0,0.1,0,0.2c0.1,1.6,0.5,3.1,1,4.6
	c0.2,0.4,0.3,0.8,0.5,1.2c0,0,0,0.1,0,0.1c1.1,2.9,3.3,5.2,6.1,6.6c7.7,3.4,22.2,0.2,27.1-3.1c2.2-1.7,4-3.8,5.5-6.1
	c0.1-0.1,0.1-0.1,0.1-0.2c0.3-0.4,0.5-0.8,0.8-1.1c0.6-0.9,1.1-1.8,1.6-2.7c0.1-0.2,0.2-0.4,0.3-0.5c4.8-8.3,10.1-20.2,9.8-30.9
	c-0.4-13.1-8.3-23-17.7-29.4c-9.8-6.7-25.4-8-40-6.3c-4.5,0.5-9,4.1-13.4,5.9s-8.8,3.1-12.1,5.1c-8.1,4.8-15.9,12.6-22.4,20
	c-7.1,7.9-12.3,17.3-15.3,27.5c-6.6,22.1-10.7,48.6-6.3,75.4c3.4,21.5,13.3,41.5,28.3,57.3c16,17.1,39.9,31,72.6,28.6
	c-0.1-0.2-0.3-0.5-0.5-0.7c0-0.1-0.1-0.1-0.1-0.2c-1.9-2.6-4.4-4.7-6.5-7.3c-7.1-9-12.3-21.2-13-36.5c-0.5-11.5,3.3-23.4,2-34.9
	c-0.5-4.5-2.9-11.7-6.3-13.4c-6.3-3-22.5-0.7-27.9,2.8c-4.5,2.9-5.7,8.3-8.6,12.2c1.5-5,2.1-9.9,4.1-13.6l0,0c2-2.5,4.4-4.6,7.3-6.1
	l0.1-0.1c7.3-3.3,19.1-5.7,26.5-4.6h0.1c1.2,0.3,2.5,0.7,3.6,1.2c0.1,0.1,0.3,0.1,0.5,0.2c5.5,3,10.1,10,12.3,17
	c0.1,0.2,0.1,0.4,0.2,0.6c0.2,0.6,0.4,1.3,0.5,2c0.1,0.5,0.2,0.9,0.3,1.4c0.1,0.6,0.2,1.2,0.3,1.8c0.3,3.2,0.4,6.4,0.3,9.5
	c0,1-0.1,2-0.1,3c-0.4,7.1-1.2,14-0.5,20.9c0.7,7.8,3.1,15.4,7.1,22.1c0.3,0.5,0.6,1.1,1,1.6c0.2,0.3,0.4,0.6,0.6,1s0.6,0.9,1,1.4
	c0.1,0.1,0.1,0.2,0.2,0.4c11.1,15.2,30.6,23.5,53.4,19.9c-2.2-9.4-5.6-23.2-1.6-33c0.9-2,2.2-3.9,3.8-5.4l12.5,2.1
	c-3.9,15.5-1,35,10.7,40.6c5-14.7,15.3-25.4,31.8-25.5c9.6-0.1,19.2,3.7,27.9,7.9c14,6.8,25.8,12,28.7,27.5
	c-3.2-3.3-5.7-7.6-9.4-10.2c-7.1-5-27.9-12.2-38.1-13c-14.1-1.1-25.1,7-25.5,18.5c-0.3,7.8,3.8,15,9.4,18.1c10,5.4,26.5,5,40.8,5.1
	c15,0.2,29.8-3.1,43.2-0.4c24.4,4.9,38,24.9,51.8,39.3c-13.5-10.6-29.2-29.9-51.4-31.4c-13.5-0.9-24.8,3.7-36.9,6.3
	c2.9,6.6,8.2,9.2,10.6,17.7c3.7,13-3.1,33.8,2,46.3c1.7,4.2,7.6,8.4,11,10.6c2.9,1.9,5.9,3.5,9.1,4.7l-0.6,12.6
	c-7.2-0.3-13.3-4.9-18.4-8.6c-4.7-3.5-9.8-7.9-12.6-13.4c-4.7-9.4-3.9-21.2-5.1-33.4c-0.1-8.2-1.5-16.3-4.3-23.9
	c-1-3.9-2.6-7.6-4.7-11h-0.4c-4.1-0.9-9.8-0.1-14.5-0.4c-5.1,0-9.6-0.7-14.5-0.8c-1-0.6-2.5-0.6-3.9-0.8c-1.6-0.7-3.3-1.3-5.1-1.6
	c-1.8-1-3.7-1.8-5.5-2.8c-0.8,0-0.5-1.1-1.6-0.8c-2.7-2.5-5.4-5.1-7.8-7.9c-0.7-1.9-2.1-3.2-2.8-5.1c-1-3.1-2.4-6-2.8-9.8
	c-1.5-1-3.7-1.3-5.9-1.6c-3.9-1.2-7.7-2.8-11.4-4.7c-1.4-1.2-3.5-3.8-4.7-3.9c-1.8,3.3-4.1,6.1-7.9,7.5c-2.1,0-3.6,0.6-5.5,0.8h-7.9
	c-5.8,0.6-10.5-3.1-16.1-3.5c-7.5-0.6-15.3,2.8-23.6,2.8h-0.3c-5.8,0-11.1,0.7-17.3,0.4c-8-1.1-15.6-2.5-22-5.1
	c-2-0.9-4.1-1.7-6.3-2.4c-2-1.1-4.1-2-6.3-2.8c-2.2-1.5-5-2.6-7.5-3.9c-2.2-0.8-3.5-2.5-5.9-3.1c-1.5-1.6-3.7-2.5-5.5-3.9
	c-1.1-0.7-2-1.6-3.1-2.4c-2.2-1.3-3.5-3.6-5.9-4.7c-2.3-2.7-4.8-5.2-7.5-7.5V356c-2.2-2.3-3.9-5-6.3-7.1c-5.1-7.4-10.2-15-14.1-23.5
	c-7.1-14.9-11.5-31-12.9-47.5v-2.7c-0.3-2,0.5-5-0.4-6.3v-4.7c0.9-0.9,0.1-3.5,0.4-5.1v-3.1c2.7-24.6,6.8-47.8,16.1-65.9
	c2.3-4.7,5.6-8.3,8.2-12.6c2.2-1.8,3.9-4.2,5.9-6.3v-0.4c1.6-1.3,3.1-2.7,4.3-4.3h0.4c1.6-1.3,3.1-2.7,4.3-4.3c3.3-2,5.8-4.9,9-7.1
	c2.4-1.9,4.9-3.6,7.5-5.1c1.7-1,3.7-1.6,5.1-2.8c1.7-0.4,3.2-1.1,4.7-2c2.2-0.5,4.4-1.5,6.3-2.7c2.6-1,5-2.2,7.5-3.5
	c1.8-0.3,3.5-0.8,5.1-1.6c2-0.2,4.3-0.2,5.9-0.8h18.8c0.7-1.5,1.1-3.1,1.2-4.7c0.8-1.5,1.5-3.1,2-4.7c1-1.2,1.5-2.9,2.4-4.3
	c1.7-3.6,4-6.7,5.9-10.2c1.6-1.3,2.5-3.3,3.9-4.7v-0.4c1.9-1.5,3.6-3.2,5.1-5.1c1.8-0.6,2.8-2,4.3-2.7c1.8-1,3.7-1.8,5.5-2.8
	c1.8-0.3,3.5-0.8,5.1-1.6c2.8-0.3,5.3-0.9,8.3-1.2c1.8,0.3,3.6,0.2,5.3-0.4c0.1,0,0.2,0,0.2,0c0.1,0,0.1-0.1,0.2-0.2
	c3.2-1.4,4.6-4.6,7-6.8c0.2-0.2,0.4-0.4,0.7-0.5c1.4-1.7,3-3.3,4.7-4.7c1.6-1.3,3.1-2.7,4.3-4.3c2.5-1.4,4.4-3.5,6.7-5.1
	c1.4-1.1,3.2-1.8,4.3-3.1c1.1-0.2,2-0.8,2.7-1.6c19.3-10.1,53.2-14,80.9-9.4c31.6,5.2,60.5,17.7,76.9,34.9
	c7.3-3.2,16.1-4.8,25.5-5.9h7.8c4-0.1,8,0.2,11.9,0.9c3.7,0.7,3.8,1.7,7.3,1.9c30.2,1.5,50,14.7,65.2,31
	c6.6,7.1,13.9,14.1,16.5,24.3C743.3,156,754,169.6,763.4,184.5z"/>
<path class="st3" d="M763.8,300.2c0.9,10.9,1.3,22-0.4,32.6c-2.5,15.9-10,28.1-15.3,40c-4-2.6-6.3-6.8-9.8-9.8
	c-21-17.8-61.1-13.4-77.7,8.6c-7.7,10.1-18.2,40.9-10.6,58.1c4.2,9.6,14.1,18.3,26.7,19.6c7.9,0.8,15.2-0.4,20.7-3.4l4.6,0.4
	c-2.8,1.3-5.2,3.4-6.8,6.1c-2.5,4.3-3.2,10.5-4.7,14.9c-8,23.6-23.5,40.6-46.3,50.6c-14.2,6.2-36.6,12.7-54.5,5.5
	c-4.9-2-13.1-7.4-14.1-12.6c-1.5-7.5,4.4-20.1,8.2-22.8c4.5-3.1,15.4-2.8,25.1-2.8c11.1,0,26.8,1.6,30.2-3.9c2.2-3.6,1.5-8,1.2-13.8
	c-2.3,1.5-3.6,6.5-7.1,7.5c-5.8,1.6-15.7-0.6-22.8-1.2c-11.4-0.9-23.7-2.5-32.2,1.2c-10.4,4.4-12.8,15.8-16.1,28.6
	c-2.1-0.6-4.1-1.3-6.1-2c-3.2-1.2-6.3-2.8-9.2-4.7c-3.4-2.3-9.3-6.4-11-10.6c-5-12.5,1.7-33.3-2-46.3c-2.4-8.5-7.7-11.1-10.6-17.7
	c12.1-2.6,23.3-7.2,36.9-6.3c22.2,1.5,37.9,20.9,51.4,31.4c-13.8-14.3-27.5-34.3-51.8-39.3c-13.3-2.7-28.2,0.5-43.2,0.4
	c-14.4-0.1-30.8,0.3-40.8-5.1c-5.6-3-9.7-10.3-9.4-18.1c0.4-11.5,11.4-19.5,25.5-18.5c10.2,0.8,30.9,8,38.1,13
	c3.8,2.6,6.2,6.9,9.4,10.2c-2.9-15.4-14.6-20.7-28.6-27.5c-8.7-4.2-18.2-7.9-27.9-7.9c-16.5,0.1-26.8,10.8-31.8,25.5
	c-11.7-5.6-14.6-25.1-10.7-40.6c0.1-0.6,0.3-1.2,0.5-1.8c13.1,4.8,25.8,9.2,41.6,8.2c8.5-0.5,16.7-3.5,25.1-5.1
	c23.6-4.6,49-4.1,61.6,11.4c6.4,7.9,9.3,17.8,13.7,28.3c-1.9-13-2.7-22.6-7.1-31.8c-9.5-19.9-30.2-25.7-54.7-26.3
	c0.7-0.1,1.3-0.1,2,0c0.3,0.1,1.4-0.1,1.2-0.4c-0.9-1.1-7.2-3.6-9.8-4.3c-3.5-1-7.4-0.5-11-1.2c-8.9-1.8-17.5-4.8-25.5-9
	c-5.1-2.9-11-10.3-13.7-17.7c-3-8.1-3-22.6-2-33.8c1.5-16.1,4-33.7,10.6-43.2c3.8-5.5,12.6-13.2,18.8-17.3c5.3-3.4,11.1-6,18.1-5.1
	c9.7,1.3,19.4,7.3,26.3,11.4c6.1,3.6,11.8,6.3,18.5,9.4c-9.5-17.3-29.2-30.3-52.6-33.4c-0.9-0.6-4.6-0.6-5.5,0
	c-13.5,1.1-26,7.9-34.1,14.9c-9.5,8.2-15.2,20-21.6,33.8c-7,15-12.5,30.1-12.6,48.3c-0.6,2-0.6,4.2,0,6.3c0.1,9.6,1.6,18.3,5.5,24.7
	c8.5,14,27.1,23.8,49.5,22c11.6-0.9,24-6.8,36.1-5.9c0.2,0.2,0.4,0.4,0.7,0.4c-0.8,0-1.5,0-2.3,0c-12,0-23.1,5-34.5,5.9
	c-22.7,1.8-40.8-8.1-49.5-21.6c-11.1-17.3-5.7-49.6,0.8-67.1c7.1-19.1,16.1-38.3,31-49.5c8.4-6.3,17.3-11.1,27.9-12.6
	c11.3-1.6,22.4,2.1,32.2,7.1c16.1,8.1,34,20.2,34.2,45.9c0.1,12.8-3.5,24.7-9.8,33.4c-5.8,7.9-13.4,15.5-23.7,18.2
	c11.6-3.5,21.3-14.8,25.3-22.5c-8.2,5.8-22,9.3-30.6,1.6c-0.6,0.6-0.1,2.2-1.6,2c-2.3-6.5-6.8-12.6-13.7-12.9
	c-11.9-0.6-15.3,20.2-7.5,27.5c-3.5-2.8-5.6-7.1-4.7-14.5c0.6-5.1,4.3-12.5,9.8-13.3c9.2-1.4,13.7,6.8,16.5,13
	c6-11.9-6-21.7-15.7-23.2c-1.7-0.2-3.4-0.2-5.1,0c-19.3,2.6-23.7,38.1-8.3,49.1c1.3,0.9,2.8,2,3.5,2.4c20.7,10.5,42.4,4.3,56.1-8.2
	c15.6-14.2,26.2-33.7,24.7-60.1c-1.2-21-12.9-34.2-25.1-43.2c-13.4-9.9-26.8-17.3-49.1-19.2c0.8-0.7,1.6-1.3,2.4-1.9
	c6.3-4.6,13.7-7.6,21.5-8.7c6.7-1,13.8-0.9,20.3-1.8c-4.4,0.8-9.1,1.3-14,1.8c-11.5,1.1-22,3.7-29,10.2c14.5,0.3,25,6.6,34.9,10.2
	c0-1.9-0.2-4.1,0.4-5.5c9.3-9.5,23.4-12.8,33.4-21.6c7.1-6.3,13.6-14.5,21.2-20c2.7-2,6.3-3.4,8.2-5.5c2.6-2.8,3.3-7.4,5.9-10.2
	c-18.6,6.2-28.6,23.4-44,34.1c-2.2,1.5-4.7,2.8-7.2,3.8c20-9.4,29.9-32.3,52-38.7c-9.7,16.6-18.8,36.3-17.3,58.1
	c1.3,18.2,17.4,35,31,41.6c21.5,10.5,47.7-6.3,55.3-20c7.7-13.9-1.1-34.9-13.3-39.7c-15.4-6-24.2,7.4-25.9,20
	c4.9-4.7,9.5-14.1,19.2-10.6c5.2,1.8,11.3,11.1,9.8,19.6c-1,5.9-10,12.8-15.3,14.9c-3.6,1.5-13.5,3.4-19.2,2.4
	c-5.3-1-11-6.2-14.5-9.8c-4.2-4.3-9.7-11.3-10.6-17.7c-2.6-18.4,8.4-45.9,18.8-55c13.2-11.4,45.5-2,58.5,6.7
	c5.5,3.9,10.5,8.3,14.9,13.4c7,7.6,13,13.1,15.3,23.6c1.3,5.8,1.7,12.1,3.2,18.4c3.1,13.4,2.7,25.4-0.8,39.3
	c-2.4,9.7-6.6,21.6-15.3,24.7c-10.2,3.7-25.2-0.7-35.7-2.4c-25.6-3.9-48,3.2-60.8,16.9c-6.5,6.9-16.7,18.8-14.1,33
	c0.8,3.4,1.9,6.7,3.5,9.8c1.2,2.7,1.8,6.2,5.5,7.5c2.3-2.5,0.2-6.3,0-9.8c-1.1-18.8,11.6-33.4,24-39.3c7.6-3.6,17.5-5.5,26.7-5.5
	c19.2,0,42.9,10.9,60.1,1.6c7.7-4.2,14.1-13.5,17.3-21.2c6.5-15.6,11.3-40,4.3-59.7c1.4-0.3,3.5,2.4,5.1,4.3
	c10.8,12.7,23.8,30.1,23.9,52.6c0,8.2-1.3,19.6-5.1,26.7c-5,9.3-13.2,11.9-14.5,24.7c-1,9.5,2.9,18.8,3.1,27.5
	c0.4,14.2-3.4,22.2-17.3,22.8c-4.5-2-2.4-8.4-5.9-9.8c-3.9-1.5-6.7,2.3-7.1,4.7c-0.9,6.8,6.9,14.5,13,14.9
	c10.3,0.7,21.5-6.3,25.1-13.8c8-16.2-3.9-44.2,9.8-53.8C761.6,278.8,762.9,289.4,763.8,300.2z M709.2,290.1c3-6.8,5.4-29-3.9-30.2
	c-3.9-0.5-6.4,1.8-8.2,4.3c2.8,0.7,4.8,0.6,5.5,2.8c2,6.2-8.8,20-11.4,22.8c-11.7,12.6-28.5,17.5-44.3,24.3
	c-7.9,3.4-16.8,6.3-23.9,10.6c-9.6,5.8-20.5,17-20.4,32.2c0.1,10.1,5.9,18.2,9.4,25.1c5.5,10.8,15.9,26.8,7.1,40.5
	c5.5-3.5,8.9-5.4,11.4-9.8c7.5-13.4-0.8-26.9-5.5-36.9c-2.5-5.3-7.5-13.2-6.7-19.2c0.6-4.5,4.5-9.4,7.5-11.8
	c5.9-4.8,14.5-8.3,22.4-12.2c7.7-3.8,15.7-7.7,23.2-11.4c7.6-3.7,15.7-7.4,22-12.6S706.1,297.1,709.2,290.1z M685.7,314.8
	c-0.1-0.3-0.3-0.5-0.8-0.4s-0.5,0.3-0.8,0.4c-8.7,4.9-19.4,10.1-30.6,15.3c-10.3,4.8-22.7,9.7-29.5,16.5c-2.7,2.7-5.2,7.4-5.5,10.6
	c-0.5,6.4,4.1,13.1,6.7,18.5c2.6,5.6,5,11,7.5,15.7c2.4-8.9-1.3-18.4,0.4-25.5c2.7-10.8,11.2-20.9,18.8-26.3
	c5.4-3.8,11.8-7.8,17.7-11.4S684.3,322.8,685.7,314.8z M666.1,116.2c4.6,0.2,9,3.4,14.5,1.2c-9.6-6.5-22.5-9.7-37.7-10.6h-5.1
	c-4.3-0.1-8.4,1.3-11.8,3.9c-9.7,7.6-18.4,28.4-19.6,45.9c-0.2,2.9-0.2,5.8,0,8.6c1.3,10.7,16,25.3,23.5,27.5
	c14.2,4,32.7-7,34.9-16.1c2.3-9.4-4.8-20.3-12.6-20.4c-8.7-0.1-10.9,8.5-16.1,11.4c1.1-3.7,1.8-7.9,3.5-11
	C633.9,137.1,646.8,115.4,666.1,116.2z M632.7,255.2c3.7-2,8.2-2.5,10.6-6.7c-12.1,0.9-21.8,4.4-28.7,10.6c-1.6,1.3-3.1,2.7-4.3,4.3
	c-5.9,7.4-11.7,15-11,29c2.7,0.8,2,5,3.9,6.7c0.3-5.2,4.8-7.9,2.8-14.1C613.4,273.5,620.6,261.7,632.7,255.2L632.7,255.2z
	 M561.7,502.9c0.5-2.5-1.9-4.5-3.2-6.3c-4.6-6.2-10.4-10.7-14.1-17.7c-5-9.4-6.1-20.9-9-33.4V462c0,1.4-0.1,2.9-0.4,4.3
	c-3.3,21.8,7.3,28.9,19.6,34.5C556.8,501.9,559.4,503.7,561.7,502.9L561.7,502.9z M466.7,386.3c-0.3,16.9,15.5,22.3,33.4,21.2
	c-1.7-1-3.9-1.8-5.5-3.1c-4.8-4.1-7.9-12.2-6.3-20.8c1.3-7.2,10.1-8.9,14.1-13.3c-5.4-1.3-14.5-4.4-19.2-0.4
	c-0.9-0.7-2.1-0.9-3.2-0.8C473.4,372.4,466.8,377.5,466.7,386.3L466.7,386.3z M466.7,358.4c-1-3.5-0.7-8.5-1.6-12.2
	c-8.3-2.1-16.9-4-23.9-7.5c-4.2,15.1-2.1,36.2,9.8,41.2C453.2,369.8,460.3,364.4,466.7,358.4L466.7,358.4z"/>
<path class="st1" d="M742.9,442.2l11.6,4.5c-1.9,2.6-3.8,5.1-5.6,7.8c-4.8,7.1-7.2,15.9-11,25.1c-7.3,17.6-15.3,33.3-26.3,45.9
	c-11.3,12.9-24.1,24.3-38.1,34.1c-14.8,10.8-31.6,18.5-49.5,22.8c-7.6,1.9-19.1,4.6-29,7.1s-21.2,5.3-24.3,11.8
	c-2.3,4.6-1.4,12.8-5.1,16.5c-23.3-4.7-21.9-44.2-40.8-54.2c-12.7-6.7-28,2.7-32.2,13.3c-3.9,9.8-2.9,23.2-5.5,35.7
	c-3.5,9.1-10.6,16.1-11.8,27.5c-1.3,12.3,0.3,27.1,0.8,41.2c0.5,13.8-0.6,27.8,0.4,40.8c0.5,7.2,2.9,15.6,4.7,24
	c1.7,7.9,3.5,177.3,5.9,183.9c4.3,11.8,13,34.3,3.9,45.5c-9.5-3.5-21.4-6.3-24.7-14.9c-3.1-7.9-1.6-26.9-1.6-39.3
	c0-13.6-1.4-187.9-2-200c-1.1-26.1-2.5-52.7-3.5-77.3c-1.1-26.7,0.5-52.5-3.1-77.7c-1.7-11.7-3.8-23.3-5.1-35.3
	c-0.1-0.8-0.2-1.6-0.2-2.3c-1.1-11.8-0.6-23.8-1.3-36.5c-0.3-6.2-1.7-13.6-1.2-20.4c1.7-21.6,17.8-40.3,32.6-48.7
	c5,0.1,9.4,0.8,14.5,0.8c4,0.9,9.8,0.1,14.5,0.4h0.4c2.6,4.2,4.6,8.8,5.7,13.7c1.8,6.9,2.9,14,3.3,21.2c1.2,12.2,0.4,23.9,5.1,33.4
	c2.7,5.5,7.8,9.9,12.6,13.4c5.1,3.7,11.2,8.3,18.4,8.7c2.1,0.1,4.3-0.2,6.3-0.8c11.1,37.5,69.6,30,100.5,14.9
	c27.8-13.6,44.4-39.6,51.4-69.1C725.8,456.3,735.7,450.6,742.9,442.2z"/>
<path class="st3" d="M738.7,399.2c1.6,21.4-8.3,34.4-21.6,41.2c-4.8,2.5-10.5,3.7-15.1,6.1l-4.6-0.4c2.6-1.3,4.9-3.1,6.8-5.3
	c3.9-4.6,8.8-15.9,7.5-24.4c-2.1-13.5-27.8-19.3-31.4-3.6c0.2-1.3,0.6-2.6,1.2-3.9c0.9-2,3.5-3.3,3.9-5.1c0.3-1.6-0.5-3.6-0.4-5.1
	c0.8-9.7,7.2-14.6,12.6-21.2c7.4-2.3,15.1-4,22.8-5.1c-16.7-6.8-36.5-3.2-46.3,7.5c-6.7,7.3-11.3,22.2-12.2,34.9
	c-0.3,2.6-0.3,5.2,0,7.9c1.3,6.9,10.2,14.1,19.6,14.1c11,0,17.7-7.7,17.3-18.5c-4.6-5.4-13.7,0.5-19.2,0c0.2-0.8,0.3-1.6,0.4-2.4
	c0,0.8,0,1.6,0,2.4c5.7-1,15.2-5.5,19.2,0c-0.5,6.6-1.9,12.7-5.9,15.7c-11.2,8.3-31.6-0.4-32.2-14.1c-0.5-11.6,4.9-29.8,10.6-37.7
	c7.8-10.8,29.4-18.5,46.7-11.4C729.8,375.7,737.7,386.7,738.7,399.2z"/>
<path class="st2" d="M705.3,259.8c9.4,1.2,7,23.4,3.9,30.2c-3.1,7-9.8,13.3-16.1,18.5s-14.4,8.8-22,12.6
	c-7.5,3.7-15.5,7.6-23.2,11.4c-7.9,3.9-16.5,7.4-22.4,12.2c-2.9,2.4-6.9,7.3-7.5,11.8c-0.8,6.1,4.2,13.9,6.7,19.2
	c4.7,10,13,23.5,5.5,36.9c-2.5,4.5-5.9,6.3-11.4,9.8c8.8-13.6-1.6-29.7-7.1-40.5c-3.5-6.9-9.3-15-9.4-25.1
	c-0.1-15.2,10.8-26.4,20.4-32.2c7.2-4.3,16-7.2,23.9-10.6c15.9-6.8,32.7-11.7,44.3-24.3c2.6-2.8,13.4-16.5,11.4-22.8
	c-0.7-2.2-2.7-2-5.5-2.8C698.9,261.7,701.4,259.3,705.3,259.8z"/>
<path class="st4" d="M673.9,379.9c9.8-10.7,29.6-14.3,46.3-7.5c-7.7,1.1-15.3,2.8-22.8,5.1c-5.4,6.5-11.7,11.5-12.6,21.2
	c-0.1,1.5,0.7,3.5,0.4,5.1c-0.4,1.8-3,3.1-3.9,5.1c-0.6,1.2-1,2.5-1.2,3.9c-0.3,1-0.4,2-0.4,3.1v0.1c-0.1,0.8-0.2,1.5-0.4,2.4
	c5.5,0.5,14.6-5.4,19.2,0c0.5,10.8-6.2,18.4-17.3,18.5c-9.5,0-18.3-7.3-19.6-14.1c-0.3-2.6-0.3-5.2,0-7.9
	C662.6,402.1,667.2,387.3,673.9,379.9z"/>
<path class="st4" d="M684.9,314.4c0.5,0,0.7,0.1,0.8,0.4c-1.4,8-10.2,9.8-16.1,13.4s-12.3,7.6-17.7,11.4
	c-7.6,5.4-16.2,15.5-18.8,26.3c-1.7,7.1,2,16.7-0.4,25.5c-2.5-4.8-4.8-10.1-7.5-15.7c-2.6-5.4-7.2-12-6.7-18.5
	c0.3-3.3,2.8-7.9,5.5-10.6c6.8-6.8,19.1-11.7,29.5-16.5c11.2-5.2,22-10.5,30.6-15.3C684.5,314.7,684.5,314.4,684.9,314.4z"/>
<path class="st3" d="M680.2,412.9c-0.2,1-0.3,2-0.4,3.1C679.8,414.9,679.9,413.9,680.2,412.9z"/>
<path class="st4" d="M680.6,117.3c-5.5,2.2-9.9-1-14.5-1.2c-19.2-0.8-32.2,20.9-26.3,40.4c-1.7,3.1-2.4,7.3-3.5,11
	c5.2-2.9,7.4-11.5,16.1-11.4c7.8,0.1,14.8,11,12.6,20.4c-2.2,9.1-20.8,20.1-34.9,16.1c-7.6-2.1-22.2-16.7-23.5-27.5
	c-0.2-2.9-0.2-5.8,0-8.6c1.2-17.5,9.9-38.3,19.6-45.9c3.3-2.6,7.5-4,11.8-3.9h5.1C658.1,107.7,671,110.8,680.6,117.3z"/>
<path class="st4" d="M643.3,248.5c-2.4,4.2-6.9,4.6-10.6,6.7c-12.1,6.6-19.3,18.4-26.7,29.9c2,6.2-2.5,9-2.8,14.1
	c-1.9-1.6-1.2-5.8-3.9-6.7c-0.7-14,5.1-21.6,11-29c1.6-1.3,3.1-2.7,4.3-4.3C621.5,252.9,631.2,249.4,643.3,248.5z"/>
<path class="st5" d="M614.7,259c-1.3,1.6-2.7,3.1-4.3,4.3C611.6,261.8,613,260.3,614.7,259z"/>
<path class="st4" d="M606,107.9c-2.6,2.8-3.3,7.4-5.9,10.2c-2,2.1-5.5,3.5-8.2,5.5c-7.6,5.5-14.1,13.7-21.2,20
	c-9.9,8.8-24,12.1-33.4,21.6c-0.6,1.4-0.3,3.6-0.4,5.5c-9.9-3.6-20.5-9.9-34.9-10.2c7-6.5,17.6-9.1,29-10.2c5-0.5,9.6-1,14-1.8
	c3.3-0.4,6.5-1.2,9.5-2.6l0.3-0.1c2.5-1,5-2.3,7.2-3.8C577.4,131.4,587.5,114.1,606,107.9z"/>
<path class="st2" d="M575.8,349.3c4.4,9.2,5.2,18.9,7.1,31.8c-4.4-10.5-7.3-20.4-13.7-28.3c-12.7-15.5-38-16-61.6-11.4
	c-8.4,1.6-16.7,4.6-25.1,5.1c-15.8,1-28.5-3.4-41.6-8.2c-0.2,0.6-0.4,1.2-0.5,1.8l-12.5-2.1c1.9-1.9,3.9-3.4,5.2-5.6
	c-13-10.1-21.1-23.5-22.8-44c-1.7-20.2,3.3-41,9.4-56.9c12.5-32.4,30.4-60.4,65.2-69.1c-6.2-7.2-12.1-15.3-11-29.8
	s11.6-34.9,21.2-42.8c7.8-5.9,17.4-9,27.2-8.8c0.9,0,1.7,0.1,2.6,0.2c6.5,0.8,13.5,5.6,17.3,11.4c5.1,7.9,4.7,20.5-9.8,18.1
	c0.1-0.1,0.2-0.2,0.3-0.3c0,0,0-0.1,0.1-0.1c0.4-0.3,0.8-0.7,1.1-1.1l0,0c1.9-1.5,4.2-2.7,4.7-5.5c-6.3-15.8-27.2-8.2-35.3,2
	c-6.5,8.1-13.5,23.2-11.6,35.9v0.1c0.1,1.1,0.3,2.1,0.7,3.1c0.8,2.8,2.1,5.4,3.9,7.6l7.1,6.7c-0.8,0.6-1.6,1.3-2.4,1.9
	c22.2,2,35.7,9.4,49.1,19.2c12.2,9,24,22.1,25.1,43.2c1.5,26.4-9.1,45.9-24.7,60.1c-13.8,12.5-35.5,18.8-56.1,8.2
	c-0.7-0.4-2.3-1.5-3.5-2.4c-15.5-11-11-46.5,8.3-49.1c1.7-0.2,3.4-0.2,5.1,0c9.8,1.5,21.7,11.3,15.7,23.2c-2.8-6.2-7.3-14.4-16.5-13
	c-5.6,0.9-9.2,8.3-9.8,13.3c-0.9,7.4,1.2,11.7,4.7,14.5l0,0c2.4,2.2,6.8,3.8,11.5,4.7h0.2c3.2,0.7,6.5,0.9,9.7,0.8h0.8
	c0.2,0,0.3,0,0.5,0c1.6-0.1,3.1-0.4,4.6-0.8c0.3-0.1,0.5-0.1,0.7-0.2c10.3-2.8,17.9-10.4,23.7-18.2c6.3-8.6,9.9-20.6,9.8-33.4
	c-0.1-25.7-18.1-37.8-34.2-45.9c-9.8-4.9-20.9-8.7-32.2-7.1c-10.5,1.5-19.4,6.3-27.9,12.6c-14.9,11.1-23.9,30.3-31,49.5
	c-6.5,17.5-11.8,49.8-0.8,67.1c8.6,13.5,26.7,23.3,49.5,21.6c11.5-0.9,22.5-5.9,34.6-5.9c0.8,0,1.5,0,2.3,0c0.3,0,0.7,0,1,0h0.1
	C545.6,323.6,566.2,329.5,575.8,349.3z"/>
<path class="st3" d="M580.1,100.9c-5.7,5.2-10.8,9.9-16.9,15.3c-5.1,4.5-11.5,11.6-18.1,13.7c-6.5,2.2-14.3,1.7-20.8,2.8
	c-10.7,1.6-19.1,4.6-24.3,11.6c0.9-1.8,2.1-3.5,3.5-4.9c4.3-4.1,10.6-4.6,16.9-7.1c0-6.1-0.7-11.1,0.8-16.1c3.2-1.5,8-3.3,11.3-5.8
	c-0.1,0.1-0.2,0.2-0.3,0.3c14.5,2.5,15-10.2,9.8-18.1c-3.8-5.8-10.8-10.6-17.3-11.4c-0.9-0.1-1.7-0.2-2.6-0.2v-1.6
	c1.8,0.3,3.6-0.5,4.5-2.1c-26.9-6.3-62.5-5.5-83.1,6.2l-0.1-0.2c9.7-5.5,21.5-8.6,35.6-9.9C521,69.4,556.3,84.7,580.1,100.9z"/>
<path class="st4" d="M558.5,496.5c1.3,1.8,3.7,3.8,3.2,6.3c-2.2,0.9-4.9-0.9-7.1-2c-12.4-5.6-22.9-12.8-19.6-34.5
	c0.9-0.7,0.2-3,0.4-4.3v-16.5c3,12.5,4,24,9,33.4C548.1,485.9,554,490.3,558.5,496.5z"/>
<path class="st6" d="M565.6,617.8c-2.9,6.3-6.4,12.2-15.3,12.6h-4.7c-18-1.7-17.5-27.6-35.3-29.8c-10.8-1.3-16.9,6.8-23.2,12.2
	c2.6-12.6,1.6-25.9,5.5-35.7c4.2-10.6,19.5-20,32.2-13.3C543.7,573.6,542.3,613.1,565.6,617.8z"/>
<path class="st3" d="M554.8,145.9l-0.3,0.1c-3,1.3-6.2,2.2-9.5,2.6C548.4,148,551.7,147.1,554.8,145.9z"/>
<path class="st5" d="M545.6,630.4h4.7C549.6,631,546.2,631,545.6,630.4z"/>
<path class="st4" d="M551.5,260.2c-3.9,7.8-13.7,19.1-25.3,22.5c-0.2,0.1-0.5,0.1-0.7,0.2c-1.7,0.4-3.4,0.7-5.1,0.8h-0.8
	c-3.3,0.1-6.5-0.2-9.7-0.8h-0.2c-0.6-0.1-1.1-0.3-1.7-0.4c-3.6-0.9-7.1-2.1-9.8-4.3l0,0c-7.8-7.3-4.5-28.1,7.5-27.5
	c7,0.4,11.4,6.4,13.7,13c1.5,0.3,1-1.4,1.6-2C529.4,269.5,543.3,266,551.5,260.2z"/>
<path class="st4" d="M554.6,212c-6.6-3.2-12.4-5.8-18.5-9.4c-6.9-4.1-16.6-10.1-26.3-11.4c-7-0.9-12.8,1.7-18.1,5.1
	c-6.2,4-15,11.7-18.8,17.3c-6.6,9.5-9.1,27.1-10.6,43.2c-1,11.1-1.1,25.6,2,33.8c2.8,7.4,8.7,14.8,13.7,17.7c8,4.2,16.6,7.2,25.5,9
	c3.6,0.6,7.5,0.2,11,1.2c2.6,0.7,8.9,3.2,9.8,4.3c0.2,0.3-0.9,0.5-1.2,0.4c-0.5-0.9-2.7-0.1-3.9-0.4c-12.2-1-24.6,5-36.1,5.9
	c-22.3,1.8-41-8-49.5-22c-3.9-6.4-5.4-15.1-5.5-24.7v-6.3c0-18.1,5.6-33.3,12.6-48.3c6.4-13.8,12.1-25.6,21.6-33.8
	c8.2-7,20.7-13.8,34.1-14.9h5.5C525.4,181.6,545.1,194.7,554.6,212z"/>
<path class="st3" d="M538.5,103.6c-0.5,2.8-2.8,4-4.7,5.5c1-1,1.7-2.2,2-3.6c1.3-7.6-7.1-11.6-14.2-10.6
	c-16.6,2.2-30.3,25.9-30.2,42c0,1.4,0,3,0.2,4.5c-1.9-12.7,5.1-27.8,11.6-35.9C511.3,95.4,532.2,87.8,538.5,103.6z"/>
<path class="st4" d="M521.6,95c7.1-0.9,15.5,3,14.1,10.6c-0.3,1.4-1,2.6-2,3.6l0,0c-0.4,0.3-0.8,0.7-1.1,1.1c-0.1,0-0.1,0.1-0.1,0.1
	c-3.2,2.6-8.1,4.4-11.3,5.8c-1.5,5-0.7,10-0.8,16.1c-6.3,2.5-12.5,3-16.9,7.1c-1.4,1.4-2.6,3.1-3.5,4.9c0,0,0,0.1,0,0.1
	c-0.7,1-1.3,2-1.9,3.1l0,0c-0.5,0.6-1,1.2-1.6,1.7c-2.1-0.7-3.7-2.4-4.3-4.5c-0.3-1-0.5-2.1-0.7-3.1v-0.1c-0.1-1.5-0.2-3.1-0.2-4.5
	C491.3,120.9,505,97.2,521.6,95z"/>
<path class="st3" d="M532.6,110.3c0.3-0.4,0.7-0.8,1.1-1.1C533.4,109.6,533,109.9,532.6,110.3z"/>
<path class="st4" d="M526.7,77.3c-0.9,1.6-2.7,2.4-4.5,2.1c-1.4-0.1-2.8-0.5-4.1-0.5c-10.1-0.6-20.3,0.2-30.2,2.3
	c-6,1.4-12,1.6-15.7,3.1c-8.7,3.7-14.9,13.3-20.4,20.8c-1.8,2.4-4.7,5.1-5.5,7.8c-1,3.4,0.7,7.7-1.6,11
	c-3.6-10.7-9.1-19.4-18.5-24.3c0.3-1.6,1.7-2,2.4-3.1c1.7-1.4,3.3-3,4.7-4.7c2.9-3.4,6.4-6.2,10.4-8.3
	C464.3,71.8,499.9,71.1,526.7,77.3z"/>
<path class="st5" d="M523.2,323c-0.7,0-1.3,0-2,0H521h-1c-0.3,0-0.6-0.2-0.7-0.4C520.5,322.9,522.6,322.1,523.2,323z"/>
<path class="st3" d="M522.2,79.4V81c-9.8-0.2-19.4,2.9-27.2,8.8c-9.6,7.8-20.1,28.2-21.2,42.8s4.8,22.6,11,29.8
	c-34.8,8.7-52.6,36.6-65.2,69.1c-6.1,15.9-11.1,36.7-9.4,56.9c1.7,20.5,9.7,33.8,22.8,44c-1.3,2.2-3.3,3.8-5.2,5.6
	c-1.6,1.5-2.9,3.3-3.8,5.4c-4.1,9.7-0.6,23.6,1.6,33c-22.8,3.6-42.2-4.8-53.4-19.9c0.5,0.6,1,1.3,1.5,1.9c9,10.3,27.7,21.4,46.3,18
	c1.3-0.2,3.6,0.5,4.3-0.4c0.7-3.9-2.8-10.2-2.4-16.5v-5.1c-0.2-6.1,1.6-10.2,3.1-14.5c-10.7-0.5-22.6-3.2-28.3-10.2
	c-1.8-2.6-3.2-5.5-3.9-8.6c-1.9-7.9-1.9-14.5-3.9-21.2c-3.7-11.9-8.7-20-16.5-29c-6.5-7.5-12.3-12-21.2-13.4l0.6-4
	c3.7,0.4,7.5,0.4,11.2,0.1c16.1-1.1,27.5-8.3,35.3-21.2c6.7-11.1,14-27.8,13.3-42.8c-1.1-25.4-17.3-40.4-36.9-49.4
	c5.3-13.6,11-28,27.1-29.8c27.4-3.2,38.5,18,31,44.7c4.4-2.8,9.8-5,11.4-9.8c2.3-6.8,0.8-16.2-1.2-23.2c-2.5-9.6-8.9-17.7-17.7-22.4
	c4.7-6.8,10.9-12.4,18.1-16.4l0.1,0.2c-3.9,2.2-7.4,5-10.4,8.3c-1.7,1.4-3.3,3-4.7,4.7c-0.6,1.2-2.1,1.6-2.4,3.1
	c9.3,4.9,14.9,13.7,18.5,24.3c2.3-3.3,0.6-7.5,1.6-11c0.8-2.8,3.7-5.4,5.5-7.8c5.5-7.5,11.7-17.1,20.4-20.8
	c3.7-1.5,9.7-1.7,15.7-3.1c9.9-2.2,20.1-2.9,30.2-2.3C519.4,79,520.8,79.3,522.2,79.4z M418,129.9c5.7,0.3,8.7,7.5,16.1,5.5
	c-0.4-18.1-13.4-26.8-31.8-24.7c-15.8,1.8-22.7,16.5-26.7,29.4c8.7,2.4,14.7,9.4,20.8,12.9c3.2-6.9,4.1-18.1,11-20.8
	c1.3-0.5,3.5-0.3,5.5-0.8C414.6,131.1,416.5,129.8,418,129.9z"/>
<path class="st3" d="M525.5,283c-1.5,0.4-3,0.7-4.6,0.8c-0.2,0-0.3,0-0.5,0C522.1,283.7,523.8,283.4,525.5,283z"/>
<path class="st5" d="M521,323.1c-0.3,0-0.7,0-1,0H521z"/>
<path class="st3" d="M509.8,283.1c3.2,0.6,6.5,0.9,9.7,0.8C516.3,284,513,283.8,509.8,283.1z"/>
<path class="st6" d="M486.7,8.6c21.4,1,36.2,6.4,51,13c-48.9,0.2-78.9,19.2-101.3,45.9c-0.7,0.8-1.7,1.4-2.7,1.6
	c-1.1,1.4-3,2-4.3,3.1c0.1-0.6,0.6-0.7,0.8-1.2c-9.1,6.4-16.7,14.5-24.1,22.6c-0.1,0.1-0.2,0.1-0.4,0.2c-1.7,0.2-4.2-0.5-5.3,0.4
	c-2.9,0.2-5.5,0.8-8.3,1.2c-2-0.1-3.9,0.4-5.5,1.6h0.4c-1.8,1-3.7,1.8-5.5,2.8c0-0.4,0.6-0.6,0-0.8c-9,5.7-15,14.6-20,24.3
	c-0.2,1.5-1.1,2.3-1.6,3.5c-1.2,1.4-1.9,3.2-2,5.1c-0.1,1.6-0.5,3.2-1.2,4.7h-2.4c-0.1-0.5-0.7-0.3-1.2-0.4c-4-0.7-8.1-0.7-12.1,0
	h-1.2c-1.8-0.3-5.9,0.3-2,0.4c-1.6,0.6-3.9,0.6-5.9,0.8c-2-0.1-3.9,0.4-5.5,1.6h0.4c-2.4,1.3-4.9,2.5-7.5,3.5
	c-2.2,0.5-5.9,1.7-6.3,2.7c-1.5,0.9-3,1.6-4.7,2c-1.9,0.7-3.9,1.4-5.1,2.8c-2.6,1.5-5.1,3.2-7.5,5.1c0.1-0.8,1.1-0.8,1.2-1.6
	c-5.8,4.8-13.1,9.9-18.9,16.1c-5.5,6-12.2,12.7-14.9,19.6c-0.2,0.4-0.8,1.8,0.4,0.8c-9.3,18.1-13.4,41.3-16.1,65.9
	c-0.2-4.4-0.6,1.4-0.4,3.1v0.8c-0.6,4.7-0.6,9.4,0,14.1v1.2c-0.2,1.7,0.2,7.1,0.4,2.7c1.4,16.5,5.8,32.6,13,47.5
	c-0.4-0.2-0.6-1.1-0.8-0.4c6,14.1,18.1,29.9,30.2,40.4c1.7,1.5,7.4,7,4.3,3.1c1.1,0.7,2,1.6,3.1,2.4c1.4,1.8,3.6,2.7,5.5,3.9
	c2.3,0.7,3.7,2.3,5.9,3.1c0.2,0.4,0.4,0.7,0.8,0.8c1.2,1.4,3.2,2,5.1,2.7c0.7,0,0.8,0.5,1.6,0.4c2.2,0.8,4.3,1.7,6.3,2.8
	c-0.1,0.7,7.8,3.9,6.3,2.4c6.4,2.6,14,4,22,5.1h-1.6c6.9,0.7,13.9,0.6,20.8-0.4h-1.6c8.3,0,16.1-3.3,23.6-2.8
	c5.5,0.4,10.3,4.1,16.1,3.5c0,0.4,0.5,0.3,0.8,0.4c2,0.7,4.2,0.7,6.3,0c0.5,0.1,0.7-0.1,0.8-0.4c1.9-0.1,3.4-0.8,5.5-0.8
	c4.3-0.5,6.2-3.4,7.9-6.7c4.6,3.4,8.8,7.2,16.1,7.9c2.2,0.3,4.4,0.5,5.9,1.6c0.4,3.8,1.7,6.7,2.8,9.8c-0.4-0.2-0.6-1.1-0.8-0.4
	c2.6,5.1,7.6,12.3,12.2,14.5c0.4,0.2,1.9,0.8,0.8-0.4c1.8,1,3.7,1.8,5.5,2.8c-0.1,0.7,3,1.7,5.1,1.6c1.4,0.2,3,0.1,3.9,0.8
	c-14.8,8.4-30.9,27.1-32.6,48.7c-0.5,6.8,0.8,14.2,1.2,20.4c0.7,12.7,0.3,24.7,1.3,36.5l-10.8,0.6c-0.6-6.6-1.6-13.1-3.1-19.5
	c-6.4-26.4-18.7-48.9-35.7-65.6c-8.9-8.7-19.2-13.9-34.1-16.5c-54.5-9.6-103-34.5-124.4-77.7c-5.5-11.2-8.6-23.6-12.2-38.5
	c-6.2-26.1-12.6-59.4-6.3-89.5c5.7-27.2,15.4-51.6,31.8-69.1c2.5-2.2,4.9-4.6,7.1-7.1c11-9.6,22.6-18.8,36.5-25.5
	c10.3-18.1,26.1-30.6,47.1-38.1c13-15.9,26.7-31.9,48.7-38.5c7-2.1,15.4-2.4,22.8-5.9c3.4-1.6,5.1-5.9,7.9-8.6
	C436.2,19.1,465.3,7.6,486.7,8.6z"/>
<path class="st3" d="M509.8,424.3c-4.7-0.3-10.5,0.5-14.5-0.4C500,424.2,505.8,423.4,509.8,424.3z"/>
<path class="st3" d="M507.9,282.6c0.6,0.2,1.2,0.3,1.7,0.4c-4.8-0.9-9.2-2.6-11.5-4.7C500.8,280.5,504.3,281.7,507.9,282.6z"/>
<path class="st5" d="M502,178.6h-5.5C497.4,177.9,501,177.9,502,178.6z"/>
<path class="st3" d="M500,144.3c-0.6,1.1-1.2,2.1-1.9,3.1C498.7,146.3,499.3,145.3,500,144.3z"/>
<path class="st4" d="M500,407.4c-17.8,1.1-33.6-4.3-33.4-21.2c0.1-8.8,6.7-13.9,13.4-17.3c1.1-0.1,2.2,0.1,3.1,0.8
	c4.8-4,13.9-0.9,19.2,0.4c-4,4.4-12.8,6.2-14.1,13.3c-1.6,8.6,1.4,16.7,6.3,20.8C496.1,405.6,498.3,406.4,500,407.4z"/>
<path class="st3" d="M496.5,149.1c0.6-0.5,1.1-1.1,1.6-1.7c-0.8,1.6-1.5,3.2-2,4.9c-1.8-2.3-3.1-4.9-3.9-7.6
	C492.8,146.7,494.4,148.4,496.5,149.1z"/>
<path class="st3" d="M492.2,144.6c-0.3-1-0.6-2.1-0.7-3.1C491.7,142.6,492,143.6,492.2,144.6z"/>
<path class="st6" d="M491,975.7c-3.2,9.3-11,14.1-22.4,15.3H462c-17.5-1.6-23.8-15.6-22.8-34.9c0.6-11.8,5-23.3,7.1-35.3
	c2.2-12.7,3.8-186.6,3.9-199.6c0.9-0.8,0.1-3.3,0.4-4.7v-13c-0.2-1.3,0.5-3.7-0.4-4.3c-2.3-48.2-5.9-95.5-8.6-143.3
	c-0.5-9-0.8-17.8-1.6-26.5l10.8-0.6c0.1,0.8,0.1,1.6,0.2,2.3c1.3,12,3.4,23.7,5.1,35.3c3.7,25.3,2,51,3.1,77.7
	c1,24.7,2.4,51.2,3.5,77.3c0.5,12.1,2,186.4,2,200c0,12.4-1.5,31.4,1.6,39.3C469.6,969.3,481.5,972.2,491,975.7z"/>
<path class="st7" d="M476.9,422.4c-2.1,0.1-5.2-0.8-5.1-1.6C473.5,421.1,475.2,421.6,476.9,422.4z"/>
<path class="st5" d="M462,991h6.7C466.5,991.7,464.2,991.7,462,991z"/>
<path class="st7" d="M466.3,418c1.1,1.1-0.4,0.6-0.8,0.4c-4.6-2.2-9.6-9.4-12.2-14.5c0.2-0.7,0.4,0.2,0.8,0.4c0.7,2,2,3.2,2.8,5.1
	c2.1,3.1,4.8,5.7,7.8,7.9C465.8,417,465.5,418,466.3,418z"/>
<path class="st4" d="M465.1,346.2c0.9,3.7,0.5,8.6,1.6,12.2c-6.4,6-13.5,11.4-15.7,21.6c-11.9-5-14-26.1-9.8-41.2
	C448.2,342.1,456.8,344,465.1,346.2z"/>
<path class="st3" d="M456.9,409.4c2.5,2.8,5.1,5.4,7.8,7.9C461.6,415.1,459,412.4,456.9,409.4z"/>
<path class="st5" d="M450.2,699.1c0.9,0.7,0.1,3,0.4,4.3C449.7,702.7,450.4,700.4,450.2,699.1z"/>
<path class="st5" d="M450.6,716.3c-0.3,1.4,0.5,3.9-0.4,4.7C450.4,719.6,449.7,717.2,450.6,716.3z"/>
<path class="st7" d="M445.5,392.9c-7.3-0.7-11.5-4.5-16.1-7.9c-1.6,3.2-3.5,6.1-7.9,6.7c3.7-1.4,6.1-4.1,7.9-7.5
	c1.7,1.2,2.8,3,4.7,3.9C437.7,390.1,441.5,391.7,445.5,392.9z"/>
<path class="st3" d="M429.4,384.3c1.2,0.1,3.3,2.7,4.7,3.9C432.1,387.3,431.1,385.4,429.4,384.3z"/>
<path class="st4" d="M434.1,135.4c-7.4,2-10.4-5.2-16.1-5.5c-1.5-0.1-3.4,1.1-5.1,1.6c-2,0.5-4.2,0.3-5.5,0.8
	c-6.9,2.7-7.8,13.9-11,20.8c-6.1-3.6-12.1-10.6-20.8-12.9c4-13,10.9-27.7,26.7-29.4C420.7,108.6,433.7,117.3,434.1,135.4z"/>
<path class="st5" d="M433.3,91.8c-1.4,1.7-3,3.3-4.7,4.7C430,94.8,431.6,93.2,433.3,91.8z"/>
<path class="st7" d="M430.1,71c-0.1,0.5-0.7,0.6-0.8,1.2c-2.3,1.6-4.2,3.7-6.7,5.1c-1.6,1.3-3.1,2.7-4.3,4.3c-1.7,1.4-3.3,3-4.7,4.7
	c-0.2,0.2-0.4,0.3-0.7,0.5c-2.5,2.1-4.5,4.7-7,6.8c0,0,0,0-0.1,0C413.5,85.6,421,77.5,430.1,71z"/>
<path class="st5" d="M428.2,275.5v6.3C427.5,279.8,427.5,277.6,428.2,275.5z"/>
<path class="st4" d="M421.9,359.5c-0.5,6.3,3.1,12.6,2.4,16.5c-1.3,0.3-3.6-0.5-4.3,0.4c-18.6,3.3-37.3-7.8-46.3-18
	c-0.5-0.6-1-1.2-1.5-1.9c-0.1-0.1-0.2-0.3-0.2-0.4c-0.4-0.5-0.6-0.9-1-1.4s-0.4-0.6-0.6-1c-0.4-0.5-0.7-1-1-1.6
	c-6.6-11.6-7.2-26.8-6.5-43c0.1-1,0.1-2,0.1-3c0-0.7,0.1-1.4,0.1-2.1c0.7-1.1,0.7-4.8,0-5.9c-0.2-1.1-0.4-2.3-0.6-3.4
	c-0.1-0.5-0.2-1-0.3-1.4c-0.1-0.7-0.3-1.3-0.5-2c-0.1-0.2-0.1-0.4-0.2-0.6c-2.1-7.6-5.6-13.9-12.3-17c-0.1-0.1-0.3-0.2-0.5-0.2
	c-1.1-0.6-2.3-1-3.5-1.2h0c-0.6-0.1-1.3-0.3-1.9-0.4c-0.5-0.7-3.8-0.7-4.3,0c-7.7,0.6-14.8,2-20.3,5l-0.1,0.1
	c-1.7,0.7-3.3,1.7-4.7,2.8c-1,0.9-1.9,2-2.5,3.3l0,0c-2.7,3.6-4.3,8.3-4.5,14.4c3.7-3.3,4.1-9,8.6-12.2c3.8-2.8,21-6.4,27.9-3.1
	c3.6,1.7,5.8,8.8,6.3,13.4c1.3,11.6-2.8,23.8-2,36.1c0.7,13.7,5.8,26.8,14.5,37.3c1.3,1.6,2.7,3.1,4.3,4.3c0.4,0.1,0.7,0.4,1,0.7
	c0,0.1,0.1,0.1,0.1,0.2c0.1,0.2,0,0.3-0.3,0.3c-35.1,2.5-60.8-15.1-76.5-34.1c-14.9-18.1-24.4-41.7-24.7-71.4V265
	c1.9-28.1,4.7-53.7,17.7-71.8c8.9-12.4,20.8-24.2,36.5-30.6c7.1-2.9,11.9-6.7,20.8-7.1c1.3-0.3,3.6,0.5,4.3-0.4h4.3
	c0.7,0.9,3,0.1,4.3,0.4c23.3,1.1,36,12.9,39.6,33.8v4.7c-1.3,8.5-4.4,19.4-9,27.7c-0.1,0.2-0.2,0.4-0.3,0.5
	c-0.3,0.5-0.6,1.1-0.9,1.6s-0.4,0.7-0.7,1.1l-0.8,1.1c0,0.1-0.1,0.2-0.1,0.2c-1.5,2.2-3.3,4.1-5.5,5.8c-9,6.5-28.1,6.2-33.2-3.1
	c0,0,0,0,0-0.1c-0.8-1.8-1.3-3.8-1.6-5.8c0-0.1,0-0.1,0-0.2c-1-9.9,4-23,10.5-24.2c7.1-1.3,10.7,4.1,15.7,5.9
	c0.1-0.3,0.4-0.4,0.4-0.8c-1.3-2-3.4-3.2-4.7-5.1c1.7,0,1.9,1.5,3.5,1.6c2.6-3.8,3.6-13.7,0.8-18c-1.4-2.2-6.4-3.9-10.6-4.7
	c-4.5-0.9-10.3-2.1-13.7-1.6c-2.1,0.4-5.1,3.6-7.5,5.5c-19.9,16.3-40.5,48.9-31.8,86.4c4-1,5.2-3.4,7.9-4.7c7-3.4,20.3-5.3,29-5.9
	c3.5-0.3,7.1-0.1,10.5,0.4c8.9,1.4,14.7,5.9,21.2,13.4c7.8,9,12.8,17.2,16.5,29c2.1,6.7,2,13.3,3.9,21.2c0.8,3.1,2.1,6,3.9,8.6
	c5.6,7,17.5,9.7,28.3,10.2c-1.6,4.3-3.4,8.4-3.1,14.5C421.3,355.2,421.3,358.7,421.9,359.5z"/>
<path class="st5" d="M420,376.4c0.7-0.9,3-0.1,4.3-0.4C423.6,376.9,421.3,376.2,420,376.4z"/>
<path class="st5" d="M421.9,354.4v5.1C421.3,358.7,421.3,355.2,421.9,354.4z"/>
<path class="st3" d="M422.7,77.3c-1.3,1.6-2.7,3.1-4.3,4.3C419.6,80,421.1,78.6,422.7,77.3z"/>
<path class="st3" d="M408.2,392.5h7.8c-0.1,0.3-0.3,0.5-0.8,0.4H409C408.6,392.8,408.2,392.9,408.2,392.5z"/>
<path class="st7" d="M409,392.9h6.3C413.2,393.6,411,393.6,409,392.9z"/>
<path class="st3" d="M406,93.6c2.5-2,4.5-4.6,7-6.8C410.6,89.1,409.2,92.3,406,93.6z"/>
<path class="st3" d="M406,93.6c-0.1,0.1-0.1,0.1-0.2,0.2L406,93.6L406,93.6z"/>
<path class="st3" d="M406,93.7l-0.1,0.1c-0.1,0-0.2,0-0.2,0C405.8,93.8,405.9,93.7,406,93.7z"/>
<path class="st3" d="M400.3,94.2c1-0.8,3.5-0.2,5.3-0.4C403.9,94.4,402.1,94.5,400.3,94.2z"/>
<path class="st3" d="M394,190.8c0.3,10.6-5,22.6-9.8,30.9c4.5-8.3,7.6-19.3,9-27.7c0.7-0.7,0.7-4,0-4.7
	c-3.6-20.8-16.3-32.6-39.6-33.8c-0.7-0.9-3-0.2-4.3-0.4H345c-1.3,0.2-3.6-0.5-4.3,0.4c-8.9,0.4-13.7,4.2-20.8,7.1
	c-15.7,6.4-27.6,18.3-36.5,30.6c-13,18.1-15.8,43.8-17.7,71.8c-0.6,0.4-0.6,3.5,0,3.9c0.4,29.7,9.9,53.4,24.7,71.4
	c15.7,19.1,41.4,36.7,76.6,34.1c0.3,0,0.4-0.1,0.3-0.3c0.2,0.3,0.4,0.5,0.5,0.7c-32.8,2.3-56.6-11.5-72.6-28.6
	c-15-15.8-24.8-35.8-28.3-57.3c-4.5-26.8-0.3-53.2,6.3-75.4c3-10.2,8.2-19.6,15.3-27.5c6.5-7.4,14.2-15.2,22.4-20
	c3.4-2,7.9-3.3,12.2-5.1s8.9-5.4,13.4-5.9c14.6-1.7,30.2-0.4,40,6.3C385.8,167.7,393.7,177.6,394,190.8z"/>
<path class="st5" d="M393.3,189.2c0.7,0.7,0.7,4,0,4.7V189.2z"/>
<path class="st7" d="M386.6,96.9c1.6-1.1,3.5-1.7,5.5-1.6c-1.6,0.7-3.3,1.3-5.1,1.6H386.6z"/>
<path class="st3" d="M383,223.7c0.3-0.5,0.6-1,0.9-1.6c-0.5,0.9-1,1.8-1.6,2.7C382.6,224.4,382.8,224.1,383,223.7z"/>
<path class="st3" d="M381.6,226l0.8-1.1C382.1,225.2,381.9,225.6,381.6,226z"/>
<path class="st7" d="M381.5,98.9c0.6,0.2,0,0.3,0,0.8c-1.6,0.8-2.6,2.1-4.3,2.7c-1.9,1.5-3.6,3.2-5.1,5.1v0.4
	c-1.7,1.1-2.7,3-3.9,4.7c-1.8,3.5-4.1,6.6-5.9,10.2c-0.3,0.1-0.4,0.4-0.8,0.4C366.5,113.5,372.4,104.6,381.5,98.9z"/>
<path class="st3" d="M381.5,226.2c-1.4,2.4-3.3,4.5-5.5,6.1c-4.8,3.3-19.4,6.6-27.1,3.1c-2.8-1.4-4.9-3.7-6.1-6.6
	c5.1,9.3,24.2,9.5,33.2,3.1C378.1,230.4,380,228.4,381.5,226.2z"/>
<path class="st3" d="M377.2,102.4c-1.5,1.9-3.2,3.6-5.1,5.1C373.6,105.7,375.3,104,377.2,102.4z"/>
<path class="st3" d="M370.9,354.8c0.3,0.4,0.6,0.9,1,1.4C371.5,355.7,371.2,355.2,370.9,354.8z"/>
<path class="st3" d="M370.3,353.8c0.2,0.3,0.4,0.7,0.6,1C370.7,354.5,370.5,354.1,370.3,353.8z"/>
<path class="st3" d="M369.3,352.3c0.3,0.5,0.6,1.1,1,1.6C369.9,353.3,369.6,352.8,369.3,352.3z"/>
<path class="st7" d="M368.5,391.7h1.6c-6.9,1-13.9,1.1-20.8,0.4h1.6c6.2,0.3,11.4-0.4,17.3-0.4H368.5z"/>
<path class="st3" d="M372.1,107.9c-1.4,1.5-2.3,3.5-3.9,4.7C369.4,111,370.3,109.1,372.1,107.9z"/>
<path class="st3" d="M367.4,182.1c2.8,4.3,1.8,14.2-0.8,18c-1.6,0-1.9-1.5-3.5-1.6c0.2,1.5,3.2,3.6,4.7,5.1c0,0.4-0.3,0.5-0.4,0.8
	c-5-1.8-8.5-7.2-15.7-5.9c-6.5,1.2-11.5,14.3-10.5,24.2c-1.4-10.3,2.7-23,10.9-24.6c5.5-1.1,10.3,3.1,14.5,5.5
	c-3.3-3.4-7.5-9.8-13.7-10.6c-8.6-1.1-15.9,6.7-18.9,12.2c-9.5,17.4-2.6,41.8,13,47.1c1.6,0.5,3.2,0.9,4.9,1.1l-0.6,4
	c-3.5-0.5-7-0.6-10.5-0.4c-8.7,0.5-22.1,2.5-29,5.9c-2.7,1.3-3.9,3.7-7.9,4.7c-8.7-37.4,11.9-70.1,31.8-86.4
	c2.4-1.9,5.3-5.1,7.5-5.5c3.4-0.6,9.3,0.7,13.7,1.6C360.9,178.2,365.9,180,367.4,182.1z"/>
<path class="st3" d="M367.1,374c-0.3-0.3-0.6-0.5-1-0.7c-1.3-1.6-2.7-3.1-4.3-4.3c-8.7-10.5-13.8-23.6-14.5-37.3
	c-0.8-12.3,3.3-24.5,2-36.1c-0.5-4.5-2.7-11.6-6.3-13.4c-6.9-3.3-24,0.4-27.9,3.1c-4.5,3.2-4.9,8.9-8.6,12.2
	c0.2-6.1,1.8-10.8,4.5-14.4c-2,3.7-2.6,8.7-4.1,13.6c2.9-3.9,4.1-9.2,8.6-12.2c5.3-3.5,21.5-5.8,27.9-2.8c3.4,1.6,5.8,8.9,6.3,13.4
	c1.3,11.6-2.5,23.4-2,34.9c0.7,15.4,5.8,27.6,13,36.5C362.7,369.2,365.3,371.3,367.1,374z"/>
<path class="st5" d="M367.7,203.7c-1.5-1.5-4.5-3.6-4.7-5.1C364.4,200.5,366.4,201.8,367.7,203.7z"/>
<path class="st5" d="M363,298.3c0.7,1.1,0.7,4.8,0,5.9V298.3z"/>
<path class="st3" d="M363,298.3v5.9c0,0.7-0.1,1.4-0.1,2.1c0.1-3.2,0-6.4-0.3-9.5c-0.1-0.6-0.2-1.2-0.3-1.8
	C362.6,296,362.8,297.1,363,298.3z"/>
<path class="st5" d="M361.9,369c1.6,1.3,3.1,2.7,4.3,4.3C364.6,372.1,363.1,370.6,361.9,369z"/>
<path class="st3" d="M362.8,309.3c-0.7,16.2-0.1,31.4,6.5,43c-4-6.8-6.4-14.3-7.1-22.1C361.6,323.3,362.4,316.4,362.8,309.3z"/>
<path class="st3" d="M362.1,293.5c-0.1-0.7-0.3-1.4-0.5-2C361.8,292.1,362,292.8,362.1,293.5z"/>
<path class="st3" d="M361.5,123.2c0.4,0,0.5-0.3,0.8-0.4c-0.8,1.4-1.3,3.1-2.4,4.3v-0.4C360.4,125.5,361.2,124.7,361.5,123.2z"/>
<path class="st7" d="M359.9,126.8v0.4c-0.5,1.6-1.2,3.2-2,4.7C358,130,358.7,128.2,359.9,126.8z"/>
<path class="st3" d="M349.1,273.9c6.6,3.1,10.2,9.3,12.3,17C359.2,283.8,354.6,276.9,349.1,273.9z"/>
<path class="st3" d="M354.4,136.6h-14.5v-0.4h13.4C353.7,136.3,354.3,136.1,354.4,136.6z"/>
<path class="st5" d="M353.6,155.4c-1.3-0.3-3.6,0.5-4.3-0.4C350.6,155.3,352.9,154.5,353.6,155.4z"/>
<path class="st7" d="M353.2,136.2h-12.1C345.1,135.5,349.2,135.5,353.2,136.2z"/>
<path class="st3" d="M345,272.4c1.3,0.2,2.5,0.6,3.6,1.2C347.5,273.1,346.2,272.7,345,272.4z"/>
<path class="st5" d="M340.7,155.4c0.7-0.9,3-0.2,4.3-0.4C344.3,155.9,342,155.2,340.7,155.4z"/>
<path class="st3" d="M343,272c0.7,0.1,1.3,0.2,1.9,0.4c-7.4-1.1-19.2,1.3-26.5,4.6c5.5-2.9,12.5-4.3,20.3-5L343,272z"/>
<path class="st5" d="M343,272h-4.3C339.2,271.4,342.5,271.4,343,272z"/>
<path class="st3" d="M342.8,228.8c-0.2-0.4-0.4-0.8-0.5-1.2c-0.5-1.5-0.9-3-1-4.6C341.5,225,342,227,342.8,228.8z"/>
<path class="st7" d="M339.9,136.2v0.4h-2C333.9,136.5,338,135.9,339.9,136.2z"/>
<path class="st7" d="M326.5,138.9c1.6-1.2,3.5-1.7,5.5-1.6c-1.6,0.7-3.3,1.3-5.1,1.6H326.5z"/>
<path class="st7" d="M328.9,387c1.5,1.6-6.4-1.6-6.3-2.4C324.7,385.3,326.8,386.1,328.9,387z"/>
<path class="st3" d="M318.3,277c-2.8,1.5-5.3,3.5-7.3,6.1c0.7-1.2,1.5-2.3,2.5-3.3C315,278.7,316.6,277.8,318.3,277z"/>
<path class="st7" d="M313.2,145.2c0.4-1.1,4.1-2.2,6.3-2.7C317.5,143.8,315.4,144.7,313.2,145.2z"/>
<path class="st3" d="M316.3,381.9c-0.7,0.1-0.9-0.4-1.6-0.4c-1.4-1.2-3.5-1.8-5.1-2.7c-0.4-0.1-0.6-0.5-0.8-0.8
	C311.3,379.3,314.1,380.4,316.3,381.9z"/>
<path class="st7" d="M309.6,378.8c1.6,1,3.7,1.6,5.1,2.7C312.9,380.8,310.9,380.1,309.6,378.8z"/>
<path class="st3" d="M308.5,147.2c-1.4,1.2-3.5,1.8-5.1,2.8C304.6,148.6,306.6,147.9,308.5,147.2z"/>
<path class="st3" d="M297.5,370.9c1.8,1.4,4,2.3,5.5,3.9C301,373.6,298.9,372.7,297.5,370.9z"/>
<path class="st7" d="M297.1,153.5c-0.1,0.8-1.1,0.8-1.2,1.6c-3.2,2.1-5.7,5-9,7.1c-1.6,1.3-3.1,2.7-4.3,4.3h-0.4
	c-1.6,1.3-3.1,2.7-4.3,4.3v0.4c-2.3,1.7-4,4.1-5.9,6.3c-2.6,4.3-6,7.9-8.2,12.6c-1.2,1-0.6-0.3-0.4-0.8c2.8-6.9,9.4-13.6,14.9-19.6
	C284,163.3,291.3,158.2,297.1,153.5z"/>
<path class="st7" d="M294.3,368.6c3,3.9-2.6-1.6-4.3-3.1c-12.1-10.6-24.3-26.3-30.2-40.4c0.2-0.7,0.4,0.2,0.8,0.4
	c4,8.6,9,16.1,14.1,23.5c2,2.5,3.8,5.1,6.3,7.1v0.4c2.3,2.6,4.8,5.1,7.5,7.5C290.9,365,292.1,367.3,294.3,368.6z"/>
<path class="st3" d="M286.9,162.1c-1.3,1.6-2.7,3.1-4.3,4.3C283.8,164.8,285.3,163.4,286.9,162.1z"/>
<path class="st3" d="M281,356.4c2.7,2.3,5.1,4.8,7.5,7.5C285.8,361.5,283.3,359,281,356.4z"/>
<path class="st3" d="M282.2,166.4c-1.3,1.6-2.7,3-4.3,4.3C279.1,169.1,280.6,167.7,282.2,166.4z"/>
<path class="st3" d="M274.7,349c2.4,2.1,4.1,4.8,6.3,7.1C278.5,354.1,276.7,351.4,274.7,349z"/>
<path class="st3" d="M277.9,171.1c-2,2.1-3.7,4.4-5.9,6.3C273.8,175.2,275.5,172.9,277.9,171.1z"/>
<path class="st7" d="M265.7,264.9v3.9C265,268.5,265,265.4,265.7,264.9z"/>
<path class="st5" d="M262.9,146c-2.2,2.5-4.6,4.9-7.1,7.1C258,150.5,260.4,148.2,262.9,146z"/>
<path class="st7" d="M247.6,275.1v2.7c-0.2,4.3-0.6-1-0.4-2.7H247.6z"/>
<path class="st7" d="M247.6,255.9v3.1h-0.4C247,257.4,247.4,251.5,247.6,255.9z"/>
<path class="st3" d="M247.6,259c-0.3,1.6,0.5,4.2-0.4,5.1V259H247.6z"/>
<path class="st3" d="M247.6,275.1h-0.4v-6.3C248.1,270.2,247.4,273.2,247.6,275.1z"/>
<path class="st7" d="M247.2,268.9v5.1c-0.6-4.7-0.6-9.4,0-14.1V268.9L247.2,268.9z"/>
<rect x="102" y="594" class="st8" width="9" height="11"/>
<text transform="matrix(1 0 0 1 102 602.5195)" class="st9 st10">t</text>
<g>
	<path class="st0" d="M692.3,884.1c2,0,3.6,0.5,4.6,1.3c1,0.9,1.6,2.2,1.6,3.9c0,0.9-0.2,1.8-0.7,2.5c-0.5,0.7-1.1,1.3-2,1.7
		c0.7,0.2,1.3,0.6,1.8,1c0.6,0.5,1,1,1.4,1.7c0.4,0.7,0.5,1.6,0.5,2.6c0,1.2-0.2,2.2-0.6,3c-0.4,0.8-1,1.4-1.7,1.9s-1.4,0.8-2.3,1
		c-0.8,0.2-1.6,0.3-2.5,0.3h-9.1v-21H692.3z M691.7,887.2h-5v5.6h5.3c0.8,0,1.5-0.3,2.2-0.8c0.6-0.5,0.9-1.2,0.9-2
		c0-1-0.3-1.7-1-2.1C693.5,887.4,692.7,887.2,691.7,887.2z M692.3,895.9h-5.5v6.1h5.6c1.1,0,2.1-0.3,2.8-0.8
		c0.7-0.5,1.1-1.3,1.1-2.4c0-0.8-0.2-1.3-0.6-1.8c-0.4-0.4-0.9-0.7-1.5-0.9S692.9,895.9,692.3,895.9z"/>
	<path class="st0" d="M716,903L716,903c-0.7,0.6-1.6,1.2-2.7,1.7c-1.1,0.5-2.3,0.7-3.5,0.7c-1.6,0-3.1-0.3-4.3-1
		c-1.3-0.7-2.2-1.6-2.9-2.8s-1-2.6-1-4.1c0-1.8,0.4-3.3,1.1-4.5c0.7-1.3,1.7-2.2,2.9-2.9c1.2-0.7,2.5-1,4-1c1.3,0,2.5,0.3,3.6,1
		s1.9,1.5,2.6,2.7c0.6,1.1,1,2.5,1,4l0,1.3h-12.1c0.2,1.4,0.8,2.5,1.8,3.4s2.2,1.2,3.8,1.2c1.1,0,2-0.2,2.7-0.6
		c0.7-0.4,1.2-0.8,1.7-1.2L716,903z M709.6,891.8c-1.2,0-2.2,0.3-3.1,0.8c-0.9,0.5-1.5,1.5-1.7,2.8h8.8v-0.2
		c-0.1-0.7-0.3-1.3-0.7-1.8c-0.4-0.5-0.9-0.9-1.5-1.2C710.9,892,710.3,891.8,709.6,891.8z"/>
	<path class="st0" d="M719.5,905.1v-22.2h3.1v22.2H719.5z"/>
	<path class="st0" d="M728.2,907.7c0.6,0.5,1.3,0.8,2.3,1.1c0.9,0.3,1.8,0.4,2.6,0.4c1.6,0,2.9-0.4,3.7-1.2c0.9-0.8,1.3-2,1.3-3.6
		v-1.9c-0.3,0.5-0.7,0.9-1.2,1.4c-0.5,0.4-1.1,0.8-1.8,1c-0.7,0.3-1.4,0.4-2.2,0.4c-1.5,0-2.8-0.3-4-1c-1.2-0.7-2.1-1.7-2.8-2.9
		c-0.7-1.2-1-2.6-1-4.2c0-1.6,0.3-3,1-4.2c0.7-1.2,1.6-2.2,2.8-2.9c1.2-0.7,2.5-1,3.9-1c1.2,0,2.3,0.3,3.2,0.8
		c0.9,0.5,1.6,1.1,2.1,1.7v-2.2h3.1v14.8c0,1.9-0.4,3.4-1.1,4.5c-0.8,1.1-1.7,2-3,2.5c-1.2,0.5-2.6,0.8-4,0.8
		c-1.1,0-2.2-0.2-3.3-0.5c-1.1-0.4-2-0.8-2.7-1.4L728.2,907.7z M733.2,891.8c-1,0-1.8,0.2-2.6,0.7s-1.3,1.1-1.8,1.9
		c-0.4,0.8-0.6,1.7-0.6,2.7c0,1,0.2,1.9,0.6,2.7c0.4,0.8,1,1.4,1.8,1.9s1.6,0.7,2.6,0.7c1,0,1.9-0.2,2.6-0.7
		c0.8-0.5,1.3-1.1,1.8-1.9c0.4-0.8,0.6-1.7,0.6-2.7c0-1-0.2-2-0.6-2.8c-0.4-0.8-1-1.4-1.8-1.9S734.2,891.8,733.2,891.8z"/>
	<path class="st0" d="M753.7,892.7c-0.2-0.1-0.4-0.2-0.7-0.3s-0.6-0.1-0.9-0.1c-0.6,0-1.3,0.2-1.9,0.5c-0.6,0.3-1.1,0.8-1.5,1.4
		c-0.4,0.6-0.6,1.3-0.6,2.2v8.7h-3.1v-15.8h3.1v3c0.4-1,1.1-1.8,2-2.4c0.9-0.6,1.8-0.9,2.8-0.9c0.7,0,1.3,0.1,1.7,0.3L753.7,892.7z"
		/>
	<path class="st0" d="M770.3,889.4v15.8h-3.1v-2.4c-0.5,0.7-1.2,1.3-2.1,1.9c-0.9,0.6-2,0.9-3.3,0.9c-1.3,0-2.5-0.3-3.6-1
		c-1.1-0.7-2-1.7-2.6-2.9c-0.6-1.2-1-2.7-1-4.3c0-1.6,0.3-3,1-4.2c0.7-1.2,1.6-2.2,2.7-2.9c1.2-0.7,2.5-1,4-1c1.1,0,2.1,0.2,2.9,0.7
		c0.8,0.5,1.5,1,2,1.7v-2.1H770.3z M762.5,902.6c1,0,1.8-0.2,2.5-0.7s1.3-1.1,1.7-1.9c0.4-0.8,0.6-1.7,0.6-2.7c0-1-0.2-1.9-0.6-2.7
		c-0.4-0.8-1-1.4-1.7-1.9c-0.7-0.5-1.6-0.7-2.5-0.7c-0.9,0-1.7,0.2-2.5,0.7c-0.7,0.5-1.3,1.1-1.7,1.9c-0.4,0.8-0.6,1.7-0.6,2.7
		c0,1,0.2,1.9,0.6,2.7c0.4,0.8,1,1.5,1.7,1.9C760.8,902.3,761.6,902.6,762.5,902.6z"/>
	<path class="st0" d="M788.8,882.9v22.2h-3.1v-2.2c-0.5,0.6-1.1,1.2-2,1.7c-0.9,0.5-1.9,0.8-3.1,0.8c-1.4,0-2.7-0.3-3.8-1
		c-1.1-0.7-2-1.7-2.7-2.9c-0.7-1.2-1-2.6-1-4.2c0-1.6,0.3-3,1-4.2c0.7-1.2,1.5-2.2,2.7-2.9c1.1-0.7,2.4-1,3.8-1c1.1,0,2.1,0.2,3,0.7
		s1.6,1,2.1,1.6v-8.4H788.8z M781,902.7c1,0,1.8-0.2,2.5-0.7c0.7-0.5,1.3-1.1,1.7-2s0.6-1.8,0.6-2.8c0-1.1-0.2-2-0.6-2.8
		s-1-1.5-1.7-2c-0.7-0.5-1.6-0.7-2.5-0.7c-0.9,0-1.8,0.2-2.5,0.7c-0.7,0.5-1.3,1.1-1.7,2s-0.6,1.8-0.6,2.8c0,1,0.2,2,0.6,2.8
		s1,1.5,1.7,2C779.3,902.5,780.1,902.7,781,902.7z"/>
	<path class="st0" d="M806,903L806,903c-0.7,0.6-1.6,1.2-2.7,1.7c-1.1,0.5-2.3,0.7-3.5,0.7c-1.6,0-3.1-0.3-4.3-1
		c-1.3-0.7-2.2-1.6-2.9-2.8s-1-2.6-1-4.1c0-1.8,0.4-3.3,1.1-4.5c0.7-1.3,1.7-2.2,2.9-2.9c1.2-0.7,2.5-1,4-1c1.3,0,2.5,0.3,3.6,1
		s1.9,1.5,2.6,2.7c0.6,1.1,1,2.5,1,4l0,1.3h-12.1c0.2,1.4,0.8,2.5,1.8,3.4s2.2,1.2,3.8,1.2c1.1,0,2-0.2,2.7-0.6
		c0.7-0.4,1.2-0.8,1.7-1.2L806,903z M799.5,891.8c-1.2,0-2.2,0.3-3.1,0.8c-0.9,0.5-1.5,1.5-1.7,2.8h8.8v-0.2
		c-0.1-0.7-0.3-1.3-0.7-1.8c-0.4-0.5-0.9-0.9-1.5-1.2C800.8,892,800.2,891.8,799.5,891.8z"/>
	<path class="st0" d="M813.8,905c0,0.8-0.2,1.6-0.6,2.4c-0.4,0.7-0.9,1.4-1.5,1.9c-0.6,0.5-1.3,0.9-1.9,1.2l-1.1-1.4
		c0.7-0.4,1.3-0.9,1.7-1.4c0.4-0.5,0.7-1,0.7-1.4c0-0.3-0.1-0.6-0.3-0.8c-0.2-0.2-0.4-0.5-0.6-0.7c-0.2-0.2-0.4-0.4-0.6-0.7
		c-0.2-0.3-0.3-0.6-0.3-1c0-0.5,0.2-0.9,0.5-1.2s0.8-0.4,1.3-0.4c0.7,0,1.3,0.3,1.8,0.9S813.8,903.9,813.8,905z"/>
	<path class="st0" d="M826.1,898.8c0.8,1.2,1.7,2.1,2.6,2.7c0.9,0.7,2,1,3.5,1c0.7,0,1.3-0.1,2-0.3c0.6-0.2,1.1-0.5,1.5-1
		c0.4-0.4,0.6-0.9,0.6-1.5c0-1-0.4-1.8-1.3-2.3c-0.8-0.6-2-1-3.6-1.3c-2-0.4-3.5-1.1-4.7-2.1c-1.2-1-1.7-2.4-1.7-4.3
		c0-1.2,0.3-2.2,1-3.1s1.6-1.6,2.7-2c1.1-0.5,2.3-0.7,3.6-0.7c1.7,0,3.1,0.3,4.3,1c1.2,0.6,2.1,1.5,2.8,2.7l-2.3,2.3
		c-0.5-0.9-1.2-1.6-2-2.2c-0.8-0.6-1.8-0.8-2.9-0.8c-1.1,0-2,0.3-2.8,0.8s-1.1,1.2-1.1,2.1c0,1,0.4,1.8,1.2,2.2
		c0.8,0.5,1.8,0.8,3.1,1.1c1.2,0.2,2.3,0.6,3.4,1.1c1.1,0.5,1.9,1.1,2.6,1.9c0.7,0.8,1,1.7,1,2.9c0,2-0.7,3.6-2,4.8
		c-1.4,1.2-3.2,1.8-5.6,1.8c-1.6,0-3.1-0.3-4.4-1c-1.3-0.6-2.5-1.7-3.5-3.1L826.1,898.8z"/>
	<path class="st0" d="M856.1,903L856.1,903c-0.7,0.6-1.6,1.2-2.7,1.7c-1.1,0.5-2.3,0.7-3.5,0.7c-1.6,0-3.1-0.3-4.3-1
		c-1.3-0.7-2.2-1.6-2.9-2.8s-1-2.6-1-4.1c0-1.8,0.4-3.3,1.1-4.5c0.7-1.3,1.7-2.2,2.9-2.9c1.2-0.7,2.5-1,4-1c1.3,0,2.5,0.3,3.6,1
		s1.9,1.5,2.6,2.7c0.6,1.1,1,2.5,1,4l0,1.3h-12.1c0.2,1.4,0.8,2.5,1.8,3.4s2.2,1.2,3.8,1.2c1.1,0,2-0.2,2.7-0.6
		c0.7-0.4,1.2-0.8,1.7-1.2L856.1,903z M849.7,891.8c-1.2,0-2.2,0.3-3.1,0.8c-0.9,0.5-1.5,1.5-1.7,2.8h8.8v-0.2
		c-0.1-0.7-0.3-1.3-0.7-1.8c-0.4-0.5-0.9-0.9-1.5-1.2C851,892,850.3,891.8,849.7,891.8z"/>
	<path class="st0" d="M868.4,892.7c-0.2-0.1-0.4-0.2-0.7-0.3s-0.6-0.1-0.9-0.1c-0.6,0-1.3,0.2-1.9,0.5c-0.6,0.3-1.1,0.8-1.5,1.4
		c-0.4,0.6-0.6,1.3-0.6,2.2v8.7h-3.1v-15.8h3.1v3c0.4-1,1.1-1.8,2-2.4c0.9-0.6,1.8-0.9,2.8-0.9c0.7,0,1.3,0.1,1.7,0.3L868.4,892.7z"
		/>
	<path class="st0" d="M879.2,889c1.4,0,2.7,0.3,3.8,1c1.1,0.7,2,1.7,2.6,2.9c0.6,1.2,1,2.6,1,4.2c0,1.6-0.3,3-1,4.3
		c-0.6,1.2-1.5,2.2-2.6,2.9s-2.3,1-3.7,1c-1.1,0-2.1-0.2-3-0.7c-0.9-0.5-1.6-1-2.1-1.7v2H871v-22.1h3.1v8.7c0.5-0.7,1.1-1.3,2.1-1.8
		C877.1,889.3,878.1,889,879.2,889z M878.8,891.8c-0.9,0-1.8,0.2-2.5,0.7c-0.7,0.5-1.3,1.1-1.7,1.9s-0.6,1.7-0.6,2.7
		c0,1,0.2,1.9,0.6,2.7c0.4,0.8,1,1.5,1.7,1.9c0.7,0.5,1.6,0.7,2.5,0.7s1.8-0.2,2.5-0.7c0.7-0.5,1.3-1.1,1.7-1.9
		c0.4-0.8,0.6-1.7,0.6-2.7c0-1-0.2-1.9-0.6-2.7c-0.4-0.8-1-1.4-1.7-1.9C880.6,892.1,879.7,891.8,878.8,891.8z"/>
	<path class="st0" d="M891.4,885.9c-0.7,0-1.2-0.2-1.6-0.5s-0.5-0.8-0.5-1.4c0-0.5,0.2-0.9,0.5-1.3s0.9-0.6,1.6-0.6
		c0.7,0,1.2,0.2,1.6,0.5c0.3,0.4,0.5,0.8,0.5,1.4c0,0.5-0.2,1-0.5,1.4C892.6,885.7,892.1,885.9,891.4,885.9z M892.9,905.1h-3.1
		v-15.8h3.1V905.1z"/>
	<path class="st0" d="M911.7,889.4v15.8h-3.1v-2.4c-0.5,0.7-1.2,1.3-2.1,1.9c-0.9,0.6-2,0.9-3.3,0.9c-1.3,0-2.5-0.3-3.6-1
		c-1.1-0.7-2-1.7-2.6-2.9c-0.6-1.2-1-2.7-1-4.3c0-1.6,0.3-3,1-4.2c0.7-1.2,1.6-2.2,2.7-2.9c1.2-0.7,2.5-1,4-1c1.1,0,2.1,0.2,2.9,0.7
		c0.8,0.5,1.5,1,2,1.7v-2.1H911.7z M903.9,902.6c1,0,1.8-0.2,2.5-0.7s1.3-1.1,1.7-1.9c0.4-0.8,0.6-1.7,0.6-2.7c0-1-0.2-1.9-0.6-2.7
		c-0.4-0.8-1-1.4-1.7-1.9c-0.7-0.5-1.6-0.7-2.5-0.7c-0.9,0-1.7,0.2-2.5,0.7c-0.7,0.5-1.3,1.1-1.7,1.9c-0.4,0.8-0.6,1.7-0.6,2.7
		c0,1,0.2,1.9,0.6,2.7c0.4,0.8,1,1.5,1.7,1.9C902.1,902.3,902.9,902.6,903.9,902.6z"/>
</g>
</svg>
